<?xml version="1.0" encoding="utf-8"?>
<!-- Generator: Adobe Illustrator 23.1.1, SVG Export Plug-In . SVG Version: 6.00 Build 0)  -->
<svg version="1.1" id="Layer_1" xmlns="http://www.w3.org/2000/svg" xmlns:xlink="http://www.w3.org/1999/xlink" x="0px" y="0px"
	 viewBox="0 0 750 758.2" style="enable-background:new 0 0 750 758.2;" xml:space="preserve">
<style type="text/css">
	.st0{display:none;}
	.st1{display:inline;}
	.st2{display:inline;fill:#FFFFFF;}
	.st3{clip-path:url(#SVGID_2_);fill:#FF0000;}
	.st4{clip-path:url(#SVGID_4_);fill:#FFFFFF;}
	.st5{clip-path:url(#SVGID_6_);fill:#FF0000;}
	.st6{clip-path:url(#SVGID_8_);fill:#FFFFFF;}
	.st7{clip-path:url(#SVGID_10_);fill:#000008;}
	.st8{clip-path:url(#SVGID_12_);fill:#237AA8;}
	.st9{clip-path:url(#SVGID_14_);fill:#E6F1F7;}
	.st10{clip-path:url(#SVGID_16_);fill:#FF0000;}
	.st11{clip-path:url(#SVGID_18_);fill:#FFFFFF;}
	.st12{clip-path:url(#SVGID_20_);fill:#FF0000;}
	.st13{clip-path:url(#SVGID_22_);fill:#FFFFFF;}
	.st14{clip-path:url(#SVGID_24_);fill:#000008;}
	.st15{clip-path:url(#SVGID_26_);fill:#237AA8;}
	.st16{clip-path:url(#SVGID_28_);fill:#E6F1F7;}
	.st17{clip-path:url(#SVGID_30_);fill:#FF0000;stroke:#FFFFFF;stroke-width:3;stroke-miterlimit:10;}
	.st18{clip-path:url(#SVGID_32_);fill:#FF0000;stroke:#FFFFFF;stroke-width:3;stroke-miterlimit:10;}
	.st19{clip-path:url(#SVGID_34_);fill:#000008;}
	.st20{clip-path:url(#SVGID_36_);fill:#237AA8;stroke:#FFFFFF;stroke-width:3;stroke-miterlimit:10;}
	.st21{clip-path:url(#SVGID_38_);fill:#E6F1F7;}
	.st22{clip-path:url(#SVGID_40_);fill:#FFFFFF;}
	.st23{clip-path:url(#SVGID_42_);fill:#FF0000;stroke:#FFFFFF;stroke-width:3;stroke-miterlimit:10;}
	.st24{clip-path:url(#SVGID_44_);fill:#FF0000;}
	.st25{clip-path:url(#SVGID_46_);fill:#FF0000;}
	.st26{clip-path:url(#SVGID_48_);fill:#237AA8;stroke:#237AA8;stroke-width:10;stroke-miterlimit:10;}
	.st27{clip-path:url(#SVGID_50_);fill:#237AA8;stroke:#237AA8;stroke-width:9;stroke-miterlimit:10;}
	.st28{display:none;clip-path:url(#SVGID_52_);fill:#000008;}
	.st29{clip-path:url(#SVGID_54_);fill:#237AA8;stroke:#237AA8;stroke-width:10;stroke-miterlimit:10;}
	.st30{clip-path:url(#SVGID_56_);fill:#237AA8;stroke:#237AA8;stroke-width:8;stroke-miterlimit:10;}
	.st31{clip-path:url(#SVGID_58_);fill:#FFFFFF;}
	.st32{clip-path:url(#SVGID_60_);fill:#237AA8;}
	.st33{clip-path:url(#SVGID_62_);fill:#237AA8;}
	.st34{clip-path:url(#SVGID_64_);fill:#237AA8;}
	.st35{clip-path:url(#SVGID_66_);fill:#237AA8;}
	.st36{clip-path:url(#SVGID_68_);fill:#FFFFFF;}
	.st37{clip-path:url(#SVGID_70_);fill:#237AA8;}
	.st38{clip-path:url(#SVGID_72_);fill:#FFFFFF;}
	.st39{clip-path:url(#SVGID_74_);fill:#000008;}
	.st40{clip-path:url(#SVGID_76_);fill:#237AA8;}
	.st41{clip-path:url(#SVGID_78_);fill:#E6F1F7;}
	.st42{clip-path:url(#SVGID_80_);}
	.st43{clip-path:url(#SVGID_82_);fill:#FFFFFF;stroke:#FFFFFF;stroke-width:2;stroke-miterlimit:10;}
	.st44{clip-path:url(#SVGID_84_);}
	.st45{clip-path:url(#SVGID_86_);fill:#FFFFFF;stroke:#FFFFFF;stroke-width:2;stroke-miterlimit:10;}
	.st46{clip-path:url(#SVGID_88_);fill:#FFFFFF;}
	.st47{clip-path:url(#SVGID_90_);stroke:#FFFFFF;stroke-width:5;stroke-miterlimit:10;}
	.st48{clip-path:url(#SVGID_92_);}
	.st49{clip-path:url(#SVGID_94_);}
	.st50{clip-path:url(#SVGID_96_);fill:#FFFFFF;}
	.st51{clip-path:url(#SVGID_98_);}
	.st52{clip-path:url(#SVGID_100_);fill:#FFFFFF;}
	.st53{display:none;clip-path:url(#SVGID_102_);fill:#FFFFFF;}
	.st54{clip-path:url(#SVGID_104_);}
	.st55{clip-path:url(#SVGID_106_);}
	.st56{clip-path:url(#SVGID_108_);fill:#FFFFFF;}
	.st57{clip-path:url(#SVGID_110_);stroke:#000000;stroke-width:2;stroke-miterlimit:10;}
	.st58{clip-path:url(#SVGID_112_);fill:#FFFFFF;}
	.st59{clip-path:url(#SVGID_114_);stroke:#000000;stroke-width:2;stroke-miterlimit:10;}
	.st60{clip-path:url(#SVGID_116_);fill:#000008;}
	.st61{clip-path:url(#SVGID_118_);fill:#FFFFFF;stroke:#000000;stroke-width:5;stroke-miterlimit:10;}
	.st62{clip-path:url(#SVGID_120_);fill:#FFFFFF;}
	.st63{clip-path:url(#SVGID_122_);fill:#FFFFFF;}
	.st64{display:none;clip-path:url(#SVGID_124_);fill:#FFFFFF;}
	.st65{clip-path:url(#SVGID_126_);fill:#FFFFFF;}
	.st66{display:none;clip-path:url(#SVGID_128_);fill:#FFFFFF;}
	.st67{display:none;clip-path:url(#SVGID_130_);fill:#000008;}
	.st68{clip-path:url(#SVGID_132_);fill:#FFFFFF;}
	.st69{clip-path:url(#SVGID_134_);fill:#FFFFFF;}
</style>
<g class="st0">
	<rect x="750" class="st1" width="892.5" height="791.2"/>
	<rect class="st2" width="750" height="1552.3"/>
	<rect x="-892.5" class="st2" width="892.5" height="791.2"/>
	<rect x="-892.5" y="758.2" class="st2" width="892.5" height="794.1"/>
	<rect x="750" y="758.2" class="st1" width="892.5" height="794.1"/>
</g>
<g id="RED">
	<g class="st0">
		<g class="st1">
			<g>
				<defs>
					<rect id="SVGID_1_" width="750" height="758.2"/>
				</defs>
				<clipPath id="SVGID_2_">
					<use xlink:href="#SVGID_1_"  style="overflow:visible;"/>
				</clipPath>
				<path class="st3" d="M169.1,390.4H61.7c-24.3,0-44.1-22.4-44.1-49.9V216.1c0-34.4,24.8-62.4,55.2-62.4h97.3
					c12.3,0,23.9-6.7,31-17.9L245,67.2c11.6-18.1,30.3-29,50.1-29H459c23.4,0,44.8,14.5,55.7,37.9l23.6,50.3
					c4.2,8.9,12.3,14.4,21.2,14.4h0.1l106.1-0.6h0.3c15,0,29.1,6.6,39.7,18.7c10.7,12.1,16.4,28.2,16.2,45.3l-0.9,85.9
					c-0.1,13-9.5,23.4-20.9,23.4c-0.1,0-0.2,0-0.3,0c-11.6-0.2-20.8-10.9-20.7-24l0.9-85.9c0-4.3-1.4-8.3-4.1-11.4
					c-2.7-3.1-6.3-4.6-10-4.7l-106.1,0.6h-0.3c-24.4,0-46.7-15.1-58.1-39.5l-23.6-50.3c-3.7-7.8-10.9-12.7-18.7-12.7h-164
					c-6.4,0-12.4,3.5-16.2,9.3l-43.8,68.6c-15,23.5-39.3,37.6-65,37.6H72.8c-7.3,0-13.3,6.8-13.3,15.1v124.4c0,1.4,1,2.5,2.2,2.5
					h107.4c11.6,0,20.9,10.6,20.9,23.7C190.1,379.8,180.7,390.4,169.1,390.4"/>
			</g>
		</g>
		<g class="st1">
			<g>
				<defs>
					<rect id="SVGID_3_" width="750" height="758.2"/>
				</defs>
				<clipPath id="SVGID_4_">
					<use xlink:href="#SVGID_3_"  style="overflow:visible;"/>
				</clipPath>
				<path class="st4" d="M169.1,391.4H61.7c-24.9,0-45.1-22.8-45.1-50.9V216.1c0-35,25.2-63.4,56.2-63.4h97.3
					c11.9,0,23.2-6.5,30.2-17.5l43.8-68.6c11.8-18.4,30.9-29.4,51-29.4H459c23.8,0,45.5,14.7,56.7,38.5l23.6,50.3
					c4,8.5,11.7,13.8,20.2,13.8h0.1l106.4-0.6c15.3,0,29.7,6.8,40.5,19c10.8,12.3,16.7,28.6,16.5,46l-0.9,85.9
					c-0.2,13.5-10,24.4-22,24.4h-0.3c-12.1-0.2-21.8-11.4-21.7-25l0.9-85.9c0-4-1.3-7.8-3.8-10.7c-2.4-2.7-5.8-4.3-9.3-4.3
					l-106.5,0.6c-24.8,0-47.5-15.4-59.1-40.1l-23.6-50.3c-3.5-7.5-10.3-12.1-17.8-12.1H295.1c-6,0-11.8,3.3-15.3,8.9L236,164
					c-15.2,23.8-39.8,38-65.9,38H72.8c-6.8,0-12.3,6.3-12.3,14v124.4c0,0.8,0.5,1.5,1.2,1.5h107.4c12.1,0,22,11.1,22,24.7
					C191.1,380.3,181.3,391.4,169.1,391.4 M72.8,154.8c-29.9,0-54.2,27.5-54.2,61.4v124.4c0,26.9,19.3,48.8,43.1,48.8h107.4
					c11,0,19.9-10.2,19.9-22.6c0-12.5-8.9-22.6-19.9-22.6H61.7c-1.8,0-3.2-1.6-3.2-3.5V216.1c0-8.9,6.4-16.1,14.4-16.1h97.3
					c25.3,0,49.3-13.9,64.1-37.1l43.9-68.6c3.9-6.2,10.3-9.8,17-9.8H459c8.3,0,15.8,5.1,19.7,13.3l23.6,50.3
					c11.3,24,33.2,38.9,57.2,38.9h0.3l106.1-0.6c4.1,0.1,8.1,1.9,10.8,5c2.8,3.2,4.4,7.5,4.3,12.1l-0.9,85.9
					c-0.1,12.5,8.7,22.8,19.7,22.9h0.2c10.8,0,19.8-10,19.9-22.4l0.9-85.9c0.2-16.8-5.5-32.7-16-44.6
					c-10.4-11.8-24.2-18.3-38.9-18.3h-0.3l-106.2,0.6c-9.3,0-17.8-5.7-22.1-15l-23.6-50.3C503,53.5,482,39.2,459,39.2H295.1
					c-19.5,0-37.9,10.6-49.3,28.5L202,136.3c-7.4,11.5-19.3,18.4-31.9,18.4L72.8,154.8L72.8,154.8z"/>
			</g>
		</g>
		<g class="st1">
			<g>
				<defs>
					<rect id="SVGID_5_" width="750" height="758.2"/>
				</defs>
				<clipPath id="SVGID_6_">
					<use xlink:href="#SVGID_5_"  style="overflow:visible;"/>
				</clipPath>
				<path class="st5" d="M663.2,722H90.6c-37,0-67.1-34-67.1-75.8V444.7c0-13.1,9.4-23.7,21-23.7s21,10.6,21,23.7v201.5
					c0,15.7,11.3,28.5,25.2,28.5h572.6c11.2,0,20.4-10.3,20.4-23V401.1c0-12.1-8.7-21.9-19.3-21.9h-93c-11.6,0-21-10.6-21-23.7
					s9.4-23.7,21-23.7h93c33.8,0,61.2,31,61.2,69.2v250.6C725.5,690.5,697.5,722,663.2,722"/>
			</g>
		</g>
		<g class="st1">
			<g>
				<defs>
					<rect id="SVGID_7_" width="750" height="758.2"/>
				</defs>
				<clipPath id="SVGID_8_">
					<use xlink:href="#SVGID_7_"  style="overflow:visible;"/>
				</clipPath>
				<path class="st6" d="M663.2,723.1H90.6c-37.6,0-68.1-34.5-68.1-76.8V444.7c0-13.6,9.9-24.7,22-24.7s22,11.1,22,24.7v201.5
					c0,15.1,10.8,27.4,24.2,27.4h572.6c10.7,0,19.4-9.9,19.4-22V401.1c0-11.5-8.2-20.8-18.3-20.8h-93c-12.1,0-22-11.1-22-24.7
					s9.9-24.7,22-24.7h93c34.3,0,62.3,31.5,62.3,70.2v250.6C726.5,691,698.1,723.1,663.2,723.1 M44.5,422.1
					c-11,0-19.9,10.2-19.9,22.6v201.5c0,41.2,29.6,74.8,66.1,74.8h572.6c33.8,0,61.2-31.1,61.2-69.3V401.1c0-37.6-27-68.2-60.2-68.2
					h-93c-11,0-19.9,10.1-19.9,22.6s8.9,22.6,19.9,22.6h93c11.2,0,20.4,10.3,20.4,22.9v250.6c0,13.3-9.6,24.1-21.4,24.1H90.6
					c-14.5,0-26.2-13.2-26.2-29.5V444.7C64.4,432.2,55.4,422.1,44.5,422.1"/>
			</g>
		</g>
		<g class="st1">
			<g>
				<defs>
					<rect id="SVGID_9_" width="750" height="758.2"/>
				</defs>
				<clipPath id="SVGID_10_">
					<use xlink:href="#SVGID_9_"  style="overflow:visible;"/>
				</clipPath>
				<path class="st7" d="M351.8,607.8L246.9,444.1c-18.1-28.2-27.5-61.7-25.8-95.5c2.8-56.4,26.6-131.4,129.5-145.7
					c14.5-2,29.3-1.8,43.8,0.8c36.4,6.5,98.9,29.3,115.6,109.5c9.7,46.4-0.3,94.9-25.6,134.4L381.9,607.8
					C374.7,619,359,619,351.8,607.8"/>
			</g>
		</g>
		<g class="st1">
			<g>
				<defs>
					<rect id="SVGID_11_" width="750" height="758.2"/>
				</defs>
				<clipPath id="SVGID_12_">
					<use xlink:href="#SVGID_11_"  style="overflow:visible;"/>
				</clipPath>
				<path class="st8" d="M366.8,631.9c-11.4,0-22-5.8-28.3-15.6L233.7,452.6c-20-31.3-30.1-68.5-28.2-104.8
					c4.6-91.4,55.4-148.3,143-160.4c16.3-2.3,32.7-2,48.7,0.9c39.9,7.1,109.6,32.3,128.2,121.8c10.3,49.3,0.2,102.5-27.8,146.1
					L395.1,616.3C388.9,626.1,378.3,631.9,366.8,631.9 M370.2,217.3c-5.8,0-11.5,0.4-17.3,1.2c-73.1,10.1-112.1,54.1-116,130.9
					c-1.5,29.8,6.8,60.5,23.3,86.3l106.7,166.6l104.4-163c23.5-36.7,32.1-81.5,23.5-122.8c-14.1-67.8-63.8-90.3-103-97.3
					C384.6,217.9,377.4,217.3,370.2,217.3"/>
			</g>
		</g>
		<g class="st1">
			<g>
				<defs>
					<rect id="SVGID_13_" width="750" height="758.2"/>
				</defs>
				<clipPath id="SVGID_14_">
					<use xlink:href="#SVGID_13_"  style="overflow:visible;"/>
				</clipPath>
				<path class="st9" d="M288.7,300c0,0,32.7-52.4,105.6-39.4c0,0,30.6,7.1,48.2,33.1c0,0,5.9,12.1-6.3,18c0,0-6.3,7.5-20.5-0.4
					c0,0-32.2-33.5-78.7-9.2c0,0-37.3,22.2-28.1,65.3c0,0,1.3,47.8,57.8,51.1c0,0,24.3,2.1,43.6-14.7c0,0,17.3-16.3,30.2-1.3
					c0,0,12.9,11.7-7.6,28.5c0,0-19.3,21.8-64.5,26c0,0-63.6,2-88.4-62.2C279.9,394.9,257.2,351.6,288.7,300"/>
			</g>
		</g>
	</g>
	<g class="st0">
		<g class="st1">
			<g>
				<defs>
					<rect id="SVGID_15_" x="-871.8" y="-276.6" width="750" height="758.2"/>
				</defs>
				<clipPath id="SVGID_16_">
					<use xlink:href="#SVGID_15_"  style="overflow:visible;"/>
				</clipPath>
				<path class="st10" d="M-702.6,113.7h-107.5c-24.3,0-44.1-22.4-44.1-49.8V-60.5c0-34.4,24.8-62.4,55.2-62.4h97.3
					c12.3,0,23.9-6.7,31-17.9l43.8-68.6c11.6-18.1,30.3-29,50.1-29h163.9c23.4,0,44.8,14.5,55.7,37.9l23.6,50.3
					c4.2,8.9,12.3,14.4,21.1,14.4h0.1l106.1-0.6h0.3c15,0,29.1,6.6,39.7,18.7c10.7,12.1,16.4,28.2,16.2,45.3l-0.9,85.9
					c-0.1,13-9.5,23.4-20.9,23.4c-0.1,0-0.2,0-0.3,0c-11.6-0.2-20.8-10.9-20.7-24L-192-73c0.1-4.3-1.4-8.3-4.1-11.4
					c-2.7-3.1-6.4-4.6-10-4.7l-106.1,0.6h-0.3c-24.4,0-46.7-15.1-58.1-39.5l-23.6-50.3c-3.7-7.9-10.9-12.7-18.7-12.7h-163.9
					c-6.4,0-12.4,3.5-16.2,9.3l-43.8,68.6c-15,23.5-39.3,37.6-65,37.6H-799c-7.3,0-13.3,6.8-13.3,15V63.9c0,1.4,1,2.5,2.2,2.5h107.5
					c11.6,0,21,10.6,21,23.7C-681.7,103.1-691.1,113.7-702.6,113.7"/>
			</g>
		</g>
		<g class="st1">
			<g>
				<defs>
					<rect id="SVGID_17_" x="-871.8" y="-276.6" width="750" height="758.2"/>
				</defs>
				<clipPath id="SVGID_18_">
					<use xlink:href="#SVGID_17_"  style="overflow:visible;"/>
				</clipPath>
				<path class="st11" d="M-702.6,114.8h-107.5c-24.9,0-45.1-22.8-45.1-50.9V-60.5c0-35,25.2-63.4,56.2-63.4h97.3
					c11.9,0,23.2-6.5,30.2-17.5l43.8-68.6c11.8-18.4,30.8-29.4,51-29.4h163.9c23.8,0,45.5,14.7,56.7,38.5l23.6,50.3
					c4,8.5,11.7,13.8,20.2,13.8h0.1l106.4-0.6c15.3,0,29.7,6.8,40.5,19c10.8,12.3,16.7,28.7,16.5,46l-0.9,85.9
					c-0.1,13.5-10,24.4-22,24.4h-0.3c-12.1-0.2-21.8-11.4-21.7-25l0.9-85.9c0.1-4-1.3-7.8-3.8-10.7c-2.4-2.7-5.8-4.3-9.3-4.3
					l-106.5,0.6c-24.8,0-47.5-15.4-59.1-40.1l-23.6-50.3c-3.5-7.5-10.3-12.1-17.8-12.1h-163.9c-6,0-11.8,3.3-15.3,8.9l-43.8,68.6
					c-15.2,23.8-39.8,38-65.9,38H-799c-6.8,0-12.3,6.3-12.3,14V63.9c0,0.8,0.5,1.5,1.2,1.5h107.5c12.1,0,22,11.1,22,24.7
					C-680.7,103.7-690.5,114.8-702.6,114.8 M-799-121.9c-29.9,0-54.2,27.5-54.2,61.4V63.9c0,26.9,19.3,48.8,43.1,48.8h107.5
					c11,0,19.9-10.2,19.9-22.6s-8.9-22.6-19.9-22.6h-107.5c-1.8,0-3.2-1.6-3.2-3.5V-60.5c0-8.9,6.4-16.1,14.3-16.1h97.3
					c25.3,0,49.3-13.9,64.1-37.1l43.8-68.6c3.9-6.1,10.3-9.8,17-9.8h163.9c8.3,0,15.8,5.1,19.7,13.3l23.6,50.3
					c11.3,24,33.2,38.9,57.2,38.9h0.3l106.1-0.6c4.1,0.1,8.1,1.9,10.8,5c2.8,3.2,4.4,7.5,4.3,12.1l-0.9,85.9
					c-0.1,12.5,8.7,22.8,19.7,22.9h0.2c10.9,0,19.8-10,19.9-22.4l0.9-85.9c0.2-16.8-5.5-32.7-16-44.6
					c-10.4-11.8-24.2-18.3-38.9-18.3h-0.3l-106.2,0.6c-9.3,0-17.8-5.7-22.1-15l-23.6-50.3c-10.8-23-31.8-37.3-54.8-37.3h-163.9
					c-19.5,0-37.9,10.6-49.3,28.5l-43.8,68.6c-7.4,11.5-19.3,18.4-31.9,18.4L-799-121.9L-799-121.9z"/>
			</g>
		</g>
		<g class="st1">
			<g>
				<defs>
					<rect id="SVGID_19_" x="-871.8" y="-276.6" width="750" height="758.2"/>
				</defs>
				<clipPath id="SVGID_20_">
					<use xlink:href="#SVGID_19_"  style="overflow:visible;"/>
				</clipPath>
				<path class="st12" d="M-208.6,445.4h-572.6c-37,0-67.1-34-67.1-75.8V168.1c0-13.1,9.4-23.7,21-23.7s21,10.6,21,23.7v201.5
					c0,15.7,11.3,28.5,25.2,28.5h572.6c11.2,0,20.4-10.3,20.4-23V124.4c0-12.1-8.7-21.9-19.4-21.9h-92.9c-11.6,0-21-10.6-21-23.7
					s9.4-23.7,21-23.7h92.9c33.8,0,61.2,31,61.2,69.2V375C-146.3,413.8-174.2,445.4-208.6,445.4"/>
			</g>
		</g>
		<g class="st1">
			<g>
				<defs>
					<rect id="SVGID_21_" x="-871.8" y="-276.6" width="750" height="758.2"/>
				</defs>
				<clipPath id="SVGID_22_">
					<use xlink:href="#SVGID_21_"  style="overflow:visible;"/>
				</clipPath>
				<path class="st13" d="M-208.6,446.4h-572.6c-37.6,0-68.1-34.5-68.1-76.8V168.1c0-13.6,9.9-24.7,22-24.7s22,11.1,22,24.7v201.5
					c0,15.1,10.8,27.4,24.2,27.4h572.6c10.7,0,19.4-9.9,19.4-22V124.4c0-11.5-8.2-20.8-18.3-20.8h-92.9c-12.1,0-22-11.1-22-24.7
					s9.9-24.7,22-24.7h92.9c34.3,0,62.3,31.5,62.3,70.2V375C-145.3,414.4-173.7,446.4-208.6,446.4 M-827.3,145.4
					c-11,0-19.9,10.2-19.9,22.6v201.5c0,41.2,29.6,74.8,66.1,74.8h572.6c33.8,0,61.2-31.1,61.2-69.3V124.4c0-37.6-27-68.2-60.2-68.2
					h-92.9c-11,0-19.9,10.2-19.9,22.6c0,12.5,8.9,22.6,19.9,22.6h92.9c11.2,0,20.4,10.3,20.4,22.9V375c0,13.3-9.6,24.1-21.4,24.1
					h-572.6c-14.5,0-26.2-13.2-26.2-29.5V168.1C-807.4,155.6-816.3,145.4-827.3,145.4"/>
			</g>
		</g>
		<g class="st1">
			<g>
				<defs>
					<rect id="SVGID_23_" x="-871.8" y="-276.6" width="750" height="758.2"/>
				</defs>
				<clipPath id="SVGID_24_">
					<use xlink:href="#SVGID_23_"  style="overflow:visible;"/>
				</clipPath>
				<path class="st14" d="M-520,331.2l-104.8-163.7c-18.1-28.2-27.5-61.7-25.8-95.5c2.8-56.4,26.6-131.4,129.5-145.7
					c14.5-2,29.3-1.8,43.8,0.8c36.4,6.5,98.9,29.3,115.6,109.5C-352,83-362,131.5-387.3,171l-102.6,160.2
					C-497.1,342.4-512.8,342.4-520,331.2"/>
			</g>
		</g>
		<g class="st1">
			<g>
				<defs>
					<rect id="SVGID_25_" x="-871.8" y="-276.6" width="750" height="758.2"/>
				</defs>
				<clipPath id="SVGID_26_">
					<use xlink:href="#SVGID_25_"  style="overflow:visible;"/>
				</clipPath>
				<path class="st15" d="M-505,355.3c-11.4,0-22-5.8-28.3-15.6L-638.1,176c-20-31.3-30-68.5-28.2-104.8
					c4.6-91.3,55.4-148.3,143-160.4c16.3-2.3,32.7-2,48.7,0.9c39.9,7,109.6,32.3,128.3,121.7c10.3,49.3,0.2,102.5-27.8,146.1
					l-102.6,160.2C-482.9,349.5-493.5,355.3-505,355.3 M-501.6-59.3c-5.8,0-11.5,0.4-17.3,1.2C-592-48-631.1-4-634.9,72.8
					c-1.5,29.8,6.8,60.5,23.3,86.3L-505,325.6l104.4-163c23.5-36.7,32.1-81.5,23.5-122.8c-14.1-67.8-63.8-90.3-103-97.3
					C-487.2-58.7-494.4-59.3-501.6-59.3"/>
			</g>
		</g>
		<g class="st1">
			<g>
				<defs>
					<rect id="SVGID_27_" x="-871.8" y="-276.6" width="750" height="758.2"/>
				</defs>
				<clipPath id="SVGID_28_">
					<use xlink:href="#SVGID_27_"  style="overflow:visible;"/>
				</clipPath>
				<path class="st16" d="M-583.1,23.4c0,0,32.7-52.3,105.5-39.4c0,0,30.6,7.1,48.2,33.1c0,0,5.9,12.1-6.3,18c0,0-6.3,7.5-20.5-0.4
					c0,0-32.2-33.5-78.7-9.2c0,0-37.3,22.2-28.1,65.3c0,0,1.3,47.8,57.8,51.1c0,0,24.3,2.1,43.6-14.7c0,0,17.3-16.3,30.2-1.3
					c0,0,12.9,11.7-7.6,28.5c0,0-19.3,21.8-64.5,26c0,0-63.6,2-88.4-62.2C-591.9,118.2-614.5,74.9-583.1,23.4"/>
			</g>
		</g>
	</g>
	<g class="st0">
		<g class="st1">
			<g>
				<defs>
					<rect id="SVGID_29_" x="0.9" y="77.2" width="749.1" height="599.8"/>
				</defs>
				<clipPath id="SVGID_30_">
					<use xlink:href="#SVGID_29_"  style="overflow:visible;"/>
				</clipPath>
				<path class="st17" d="M179.3,386.2H76.7c-23.2,0-42.1-18.2-42.1-40.6V244.3c0-28,23.7-50.8,52.7-50.8h92.9
					c11.7,0,22.8-5.5,29.6-14.6l41.9-55.9c11.1-14.8,29-23.6,47.9-23.6h156.5c22.4,0,42.8,11.8,53.2,30.8l22.6,40.9
					c4,7.2,11.7,11.7,20.2,11.7h0.1l101.4-0.5h0.3c14.3,0,27.8,5.4,37.9,15.2c10.2,9.9,15.7,23,15.5,36.9l-0.9,69.9
					c-0.1,10.6-9.1,19-20,19c-0.1,0-0.2,0-0.2,0c-11-0.1-19.9-8.9-19.8-19.5l0.9-69.9c0-3.5-1.3-6.8-3.9-9.3
					c-2.6-2.5-6.1-3.8-9.6-3.8l-101.4,0.5h-0.3c-23.3,0-44.6-12.3-55.5-32.2L474,148.2c-3.5-6.4-10.4-10.4-17.9-10.4H299.6
					c-6.1,0-11.9,2.8-15.4,7.6l-41.9,55.9c-14.4,19.1-37.6,30.6-62.1,30.6H87.3c-7,0-12.7,5.5-12.7,12.2v101.3c0,1.1,0.9,2,2.1,2
					h102.6c11.1,0,20,8.6,20,19.3C199.3,377.6,190.4,386.2,179.3,386.2"/>
			</g>
		</g>
		<g class="st1">
			<g>
				<defs>
					<rect id="SVGID_31_" x="0.9" y="77.2" width="749.1" height="599.8"/>
				</defs>
				<clipPath id="SVGID_32_">
					<use xlink:href="#SVGID_31_"  style="overflow:visible;"/>
				</clipPath>
				<path class="st18" d="M651.2,656.3h-547c-35.3,0-64.1-27.7-64.1-61.7V430.5c0-10.6,9-19.3,20-19.3s20,8.6,20,19.3v164.1
					c0,12.8,10.8,23.2,24.1,23.2h547c10.7,0,19.5-8.4,19.5-18.8V394.9c0-9.8-8.3-17.8-18.5-17.8h-88.8c-11,0-20-8.6-20-19.3
					c0-10.6,9-19.3,20-19.3h88.8c32.3,0,58.5,25.3,58.5,56.4V599C710.7,630.6,684,656.3,651.2,656.3"/>
			</g>
		</g>
		<g class="st1">
			<g>
				<defs>
					<rect id="SVGID_33_" x="0.9" y="77.2" width="749.1" height="599.8"/>
				</defs>
				<clipPath id="SVGID_34_">
					<use xlink:href="#SVGID_33_"  style="overflow:visible;"/>
				</clipPath>
				<path class="st19" d="M357.1,556.1l-81.6-127.4c-14.1-22-21.4-48-20.1-74.3c2.2-43.9,20.7-102.3,100.8-113.4
					c11.3-1.6,22.8-1.4,34.1,0.6c28.3,5,76.9,22.8,90,85.2c7.5,36.1-0.2,73.9-19.9,104.6L380.6,556
					C375,564.8,362.7,564.8,357.1,556.1"/>
			</g>
		</g>
		<g class="st1">
			<g>
				<defs>
					<rect id="SVGID_35_" x="0.9" y="77.2" width="749.1" height="599.8"/>
				</defs>
				<clipPath id="SVGID_36_">
					<use xlink:href="#SVGID_35_"  style="overflow:visible;"/>
				</clipPath>
				<path class="st20" d="M368.8,574.8c-8.9,0-17.1-4.5-22-12.2l-81.6-127.4c-15.6-24.3-23.4-53.3-22-81.5
					c3.6-71.1,43.1-115.4,111.3-124.8c12.7-1.8,25.5-1.5,37.9,0.7c31,5.5,85.2,25.2,99.8,94.8c8,38.3,0.1,79.8-21.6,113.7
					l-79.8,124.6C386,570.3,377.7,574.8,368.8,574.8 M371.4,252.2c-4.5,0-9,0.3-13.5,0.9C301,261,270.7,295.2,267.7,355
					c-1.2,23.2,5.3,47,18.1,67.1l83,129.6L450,424.9c18.3-28.6,25-63.4,18.3-95.5c-11-52.7-49.6-70.3-80.1-75.7
					C382.7,252.7,377,252.2,371.4,252.2"/>
			</g>
		</g>
		<g class="st1">
			<g>
				<defs>
					<rect id="SVGID_37_" x="0.9" y="77.2" width="749.1" height="599.8"/>
				</defs>
				<clipPath id="SVGID_38_">
					<use xlink:href="#SVGID_37_"  style="overflow:visible;"/>
				</clipPath>
				<path class="st21" d="M308,316.6c0,0,25.4-40.7,82.1-30.6c0,0,23.8,5.5,37.5,25.8c0,0,4.6,9.5-4.9,14c0,0-4.9,5.9-16-0.3
					c0,0-25.1-26.1-61.3-7.2c0,0-29,17.3-21.8,50.8c0,0,1,37.1,45,39.8c0,0,18.9,1.6,33.9-11.4c0,0,13.5-12.7,23.5-1
					c0,0,10,9.1-5.9,22.2c0,0-15,17-50.2,20.2c0,0-49.5,1.6-68.8-48.4C301.2,390.4,283.5,356.7,308,316.6"/>
			</g>
		</g>
		<g class="st1">
			<g>
				<defs>
					<rect id="SVGID_39_" x="0.9" y="77.2" width="749.1" height="599.8"/>
				</defs>
				<clipPath id="SVGID_40_">
					<use xlink:href="#SVGID_39_"  style="overflow:visible;"/>
				</clipPath>
				<path class="st22" d="M621.4,190.6h-35.9c-6,0-10.9-4.9-10.9-10.9v-13.9c0-7,5.7-12.7,12.7-12.7h32.2c7,0,12.7,5.7,12.7,12.7
					v13.9C632.3,185.7,627.5,190.6,621.4,190.6z"/>
			</g>
		</g>
		<g class="st1">
			<g>
				<defs>
					<rect id="SVGID_41_" x="0.9" y="77.2" width="749.1" height="599.8"/>
				</defs>
				<clipPath id="SVGID_42_">
					<use xlink:href="#SVGID_41_"  style="overflow:visible;"/>
				</clipPath>
				<path class="st23" d="M430.6,196.9H322.5c-5.9,0-10.7-4.8-10.7-10.7v-13.3c0-5.9,4.8-10.7,10.7-10.7h108.1
					c5.9,0,10.7,4.8,10.7,10.7v13.3C441.3,192.1,436.5,196.9,430.6,196.9z"/>
			</g>
		</g>
		<g class="st1">
			<g>
				<defs>
					<rect id="SVGID_43_" x="0.9" y="77.2" width="749.1" height="599.8"/>
				</defs>
				<clipPath id="SVGID_44_">
					<use xlink:href="#SVGID_43_"  style="overflow:visible;"/>
				</clipPath>
				<path class="st24" d="M629.8,185.5h-52.7v-19.4c0-5.9,4.8-10.7,10.7-10.7h31.3c5.9,0,10.7,4.8,10.7,10.7V185.5z"/>
			</g>
		</g>
		<g class="st1">
			<g>
				<defs>
					<rect id="SVGID_45_" x="0.9" y="77.2" width="749.1" height="599.8"/>
				</defs>
				<clipPath id="SVGID_46_">
					<use xlink:href="#SVGID_45_"  style="overflow:visible;"/>
				</clipPath>
				<polygon class="st25" points="632.6,191.6 573.6,191.6 573.6,184 632.6,183.7 				"/>
			</g>
		</g>
	</g>
	<g>
		<g>
			<g>
				<defs>
					<rect id="SVGID_47_" x="0.4" y="79.2" width="749.1" height="599.8"/>
				</defs>
				<clipPath id="SVGID_48_">
					<use xlink:href="#SVGID_47_"  style="overflow:visible;"/>
				</clipPath>
				<path class="st26" d="M178.9,388.3H76.2c-23.2,0-42.1-18.2-42.1-40.6V246.4c0-28,23.7-50.8,52.7-50.8h92.9
					c11.7,0,22.8-5.5,29.6-14.6l41.9-55.9c11.1-14.8,29-23.6,47.9-23.6h156.5c22.4,0,42.8,11.8,53.2,30.8l22.6,40.9
					c4,7.2,11.7,11.7,20.2,11.7h0.1l101.4-0.5h0.3c14.3,0,27.8,5.4,37.9,15.2c10.2,9.9,15.7,23,15.5,36.9l-0.9,69.9
					c-0.1,10.6-9.1,19-20,19c-0.1,0-0.2,0-0.2,0c-11-0.1-19.9-8.9-19.8-19.5l0.9-69.9c0-3.5-1.3-6.8-3.9-9.3
					c-2.6-2.5-6.1-3.8-9.6-3.8l-101.4,0.5h-0.3c-23.3,0-44.6-12.3-55.5-32.2l-22.6-40.9c-3.5-6.4-10.4-10.4-17.9-10.4H299.2
					c-6.1,0-11.9,2.8-15.4,7.6l-41.9,55.9c-14.4,19.1-37.6,30.6-62.1,30.6h-93c-7,0-12.7,5.5-12.7,12.2v101.3c0,1.1,0.9,2,2.1,2
					h102.6c11.1,0,20,8.6,20,19.3C198.9,379.6,189.9,388.3,178.9,388.3"/>
			</g>
		</g>
		<g>
			<g>
				<defs>
					<rect id="SVGID_49_" x="0.4" y="79.2" width="749.1" height="599.8"/>
				</defs>
				<clipPath id="SVGID_50_">
					<use xlink:href="#SVGID_49_"  style="overflow:visible;"/>
				</clipPath>
				<path class="st27" d="M650.8,658.4h-547c-35.3,0-64.1-27.7-64.1-61.7V432.5c0-10.6,9-19.3,20-19.3s20,8.6,20,19.3v164.1
					c0,12.8,10.8,23.2,24.1,23.2h547c10.7,0,19.5-8.4,19.5-18.8V397c0-9.8-8.3-17.8-18.5-17.8H563c-11,0-20-8.6-20-19.3
					c0-10.6,9-19.3,20-19.3h88.8c32.3,0,58.5,25.3,58.5,56.4v204.1C710.3,632.7,683.6,658.4,650.8,658.4"/>
			</g>
		</g>
		<g>
			<g>
				<defs>
					<rect id="SVGID_51_" x="0.4" y="79.2" width="749.1" height="599.8"/>
				</defs>
				<clipPath id="SVGID_52_">
					<use xlink:href="#SVGID_51_"  style="overflow:visible;"/>
				</clipPath>
				<path class="st28" d="M356.7,558.2l-81.6-127.4c-14.1-22-21.4-48-20.1-74.3c2.2-43.9,20.7-102.3,100.8-113.4
					c11.3-1.6,22.8-1.4,34.1,0.6c28.3,5,76.9,22.8,90,85.2c7.5,36.1-0.2,73.9-19.9,104.6l-79.8,124.6
					C374.5,566.9,362.2,566.9,356.7,558.2"/>
			</g>
		</g>
		<g>
			<g>
				<defs>
					<rect id="SVGID_53_" x="0.4" y="79.2" width="749.1" height="599.8"/>
				</defs>
				<clipPath id="SVGID_54_">
					<use xlink:href="#SVGID_53_"  style="overflow:visible;"/>
				</clipPath>
				<path class="st29" d="M368.4,576.9c-8.9,0-17.1-4.5-22-12.2l-81.6-127.4c-15.6-24.3-23.4-53.3-22-81.5
					c3.6-71.1,43.1-115.4,111.3-124.8c12.7-1.8,25.5-1.5,37.9,0.7c31,5.5,85.2,25.2,99.8,94.8c8,38.3,0.1,79.8-21.6,113.7
					l-79.8,124.6C385.5,572.4,377.3,576.9,368.4,576.9 M371,254.3c-4.5,0-9,0.3-13.5,0.9c-56.9,7.9-87.2,42.1-90.2,101.9
					c-1.2,23.2,5.3,47,18.1,67.1l83,129.6L449.6,427c18.3-28.6,25-63.4,18.3-95.5c-11-52.7-49.6-70.3-80.1-75.7
					C382.2,254.8,376.6,254.3,371,254.3"/>
			</g>
		</g>
		<g>
			<g>
				<defs>
					<rect id="SVGID_55_" x="0.4" y="79.2" width="749.1" height="599.8"/>
				</defs>
				<clipPath id="SVGID_56_">
					<use xlink:href="#SVGID_55_"  style="overflow:visible;"/>
				</clipPath>
				<path class="st30" d="M315.4,321.1c0,0,24-38.5,77.7-29c0,0,22.5,5.2,35.5,24.4c0,0,4.4,9-4.6,13.2c0,0-4.6,5.6-15.1-0.3
					c0,0-23.8-24.7-58-6.8c0,0-27.4,16.4-20.6,48.1c0,0,0.9,35.1,42.6,37.7c0,0,17.9,1.5,32.1-10.8c0,0,12.8-12,22.2-0.9
					c0,0,9.5,8.6-5.6,21c0,0-14.2,16.1-47.5,19.1c0,0-46.8,1.5-65.1-45.8C309,391,292.3,359.1,315.4,321.1"/>
			</g>
		</g>
		<g>
			<g>
				<defs>
					<rect id="SVGID_57_" x="0.4" y="79.2" width="749.1" height="599.8"/>
				</defs>
				<clipPath id="SVGID_58_">
					<use xlink:href="#SVGID_57_"  style="overflow:visible;"/>
				</clipPath>
				<path class="st31" d="M621,192.6h-35.9c-6,0-10.9-4.9-10.9-10.9v-13.9c0-7,5.7-12.7,12.7-12.7h32.2c7,0,12.7,5.7,12.7,12.7v13.9
					C631.9,187.8,627,192.6,621,192.6z"/>
			</g>
		</g>
		<g>
			<g>
				<defs>
					<rect id="SVGID_59_" x="0.4" y="79.2" width="749.1" height="599.8"/>
				</defs>
				<clipPath id="SVGID_60_">
					<use xlink:href="#SVGID_59_"  style="overflow:visible;"/>
				</clipPath>
				<path class="st32" d="M429.4,202.8H322.7c-5.8,0-10.6-4.7-10.6-10.6v-13.1c0-5.8,4.7-10.6,10.6-10.6h106.7
					c5.8,0,10.6,4.7,10.6,10.6v13.1C440,198,435.2,202.8,429.4,202.8z"/>
			</g>
		</g>
		<g>
			<g>
				<defs>
					<rect id="SVGID_61_" x="0.4" y="79.2" width="749.1" height="599.8"/>
				</defs>
				<clipPath id="SVGID_62_">
					<use xlink:href="#SVGID_61_"  style="overflow:visible;"/>
				</clipPath>
				<path class="st33" d="M632.2,189.1h-58.2v-21.4c0-6.5,5.3-11.8,11.8-11.8h34.6c6.5,0,11.8,5.3,11.8,11.8V189.1L632.2,189.1z"/>
			</g>
		</g>
		<g>
			<g>
				<defs>
					<rect id="SVGID_63_" x="0.4" y="79.2" width="749.1" height="599.8"/>
				</defs>
				<clipPath id="SVGID_64_">
					<use xlink:href="#SVGID_63_"  style="overflow:visible;"/>
				</clipPath>
				<polygon class="st34" points="632.1,193.7 573.2,193.7 573.2,186.1 632.2,185.8 				"/>
			</g>
		</g>
	</g>
</g>
<g id="BLUE" class="st0">
	<g class="st1">
		<g>
			<g>
				<defs>
					<rect id="SVGID_65_" width="750" height="758.2"/>
				</defs>
				<clipPath id="SVGID_66_">
					<use xlink:href="#SVGID_65_"  style="overflow:visible;"/>
				</clipPath>
				<path class="st35" d="M169.1,390.4H61.7c-24.3,0-44.1-22.4-44.1-49.9V216.1c0-34.4,24.8-62.4,55.2-62.4h97.3
					c12.3,0,23.9-6.7,31-17.9L245,67.2c11.6-18.1,30.3-29,50.1-29H459c23.4,0,44.8,14.5,55.7,37.9l23.6,50.3
					c4.2,8.9,12.3,14.4,21.2,14.4h0.1l106.1-0.6h0.3c15,0,29.1,6.6,39.7,18.7c10.7,12.1,16.4,28.2,16.2,45.3l-0.9,85.9
					c-0.1,13-9.5,23.4-20.9,23.4c-0.1,0-0.2,0-0.3,0c-11.6-0.2-20.8-10.9-20.7-24l0.9-85.9c0-4.3-1.4-8.3-4.1-11.4
					c-2.7-3.1-6.3-4.6-10-4.7l-106.1,0.6h-0.3c-24.4,0-46.7-15.1-58.1-39.5l-23.6-50.3c-3.7-7.8-10.9-12.7-18.7-12.7h-164
					c-6.4,0-12.4,3.5-16.2,9.3l-43.8,68.6c-15,23.5-39.3,37.6-65,37.6H72.8c-7.3,0-13.3,6.8-13.3,15.1v124.4c0,1.4,1,2.5,2.2,2.5
					h107.4c11.6,0,20.9,10.6,20.9,23.7C190.1,379.8,180.7,390.4,169.1,390.4"/>
			</g>
		</g>
		<g>
			<g>
				<defs>
					<rect id="SVGID_67_" width="750" height="758.2"/>
				</defs>
				<clipPath id="SVGID_68_">
					<use xlink:href="#SVGID_67_"  style="overflow:visible;"/>
				</clipPath>
				<path class="st36" d="M169.1,391.4H61.7c-24.9,0-45.1-22.8-45.1-50.9V216.1c0-35,25.2-63.4,56.2-63.4h97.3
					c11.9,0,23.2-6.5,30.2-17.5l43.8-68.6c11.8-18.4,30.9-29.4,51-29.4H459c23.8,0,45.5,14.7,56.7,38.5l23.6,50.3
					c4,8.5,11.7,13.8,20.2,13.8h0.1l106.4-0.6c15.3,0,29.7,6.8,40.5,19c10.8,12.3,16.7,28.6,16.5,46l-0.9,85.9
					c-0.2,13.5-10,24.4-22,24.4h-0.3c-12.1-0.2-21.8-11.4-21.7-25l0.9-85.9c0-4-1.3-7.8-3.8-10.7c-2.4-2.7-5.8-4.3-9.3-4.3
					l-106.5,0.6c-24.8,0-47.5-15.4-59.1-40.1l-23.6-50.3c-3.5-7.5-10.3-12.1-17.8-12.1H295.1c-6,0-11.8,3.3-15.3,8.9L236,164
					c-15.2,23.8-39.8,38-65.9,38H72.8c-6.8,0-12.3,6.3-12.3,14v124.4c0,0.8,0.5,1.5,1.2,1.5h107.4c12.1,0,22,11.1,22,24.7
					C191.1,380.3,181.3,391.4,169.1,391.4 M72.8,154.8c-29.9,0-54.2,27.5-54.2,61.4v124.4c0,26.9,19.3,48.8,43.1,48.8h107.4
					c11,0,19.9-10.2,19.9-22.6c0-12.5-8.9-22.6-19.9-22.6H61.7c-1.8,0-3.2-1.6-3.2-3.5V216.1c0-8.9,6.4-16.1,14.4-16.1h97.3
					c25.3,0,49.3-13.9,64.1-37.1l43.9-68.6c3.9-6.2,10.3-9.8,17-9.8H459c8.3,0,15.8,5.1,19.7,13.3l23.6,50.3
					c11.3,24,33.2,38.9,57.2,38.9h0.3l106.1-0.6c4.1,0.1,8.1,1.9,10.8,5c2.8,3.2,4.4,7.5,4.3,12.1l-0.9,85.9
					c-0.1,12.5,8.7,22.8,19.7,22.9h0.2c10.8,0,19.8-10,19.9-22.4l0.9-85.9c0.2-16.8-5.5-32.7-16-44.6
					c-10.4-11.8-24.2-18.3-38.9-18.3h-0.3l-106.2,0.6c-9.3,0-17.8-5.7-22.1-15l-23.6-50.3C503,53.5,482,39.2,459,39.2H295.1
					c-19.5,0-37.9,10.6-49.3,28.5L202,136.3c-7.4,11.5-19.3,18.4-31.9,18.4L72.8,154.8L72.8,154.8z"/>
			</g>
		</g>
		<g>
			<g>
				<defs>
					<rect id="SVGID_69_" width="750" height="758.2"/>
				</defs>
				<clipPath id="SVGID_70_">
					<use xlink:href="#SVGID_69_"  style="overflow:visible;"/>
				</clipPath>
				<path class="st37" d="M663.2,722H90.6c-37,0-67.1-34-67.1-75.8V444.7c0-13.1,9.4-23.7,21-23.7s21,10.6,21,23.7v201.5
					c0,15.7,11.3,28.5,25.2,28.5h572.6c11.2,0,20.4-10.3,20.4-23V401.1c0-12.1-8.7-21.9-19.3-21.9h-93c-11.6,0-21-10.6-21-23.7
					s9.4-23.7,21-23.7h93c33.8,0,61.2,31,61.2,69.2v250.6C725.5,690.5,697.5,722,663.2,722"/>
			</g>
		</g>
		<g>
			<g>
				<defs>
					<rect id="SVGID_71_" width="750" height="758.2"/>
				</defs>
				<clipPath id="SVGID_72_">
					<use xlink:href="#SVGID_71_"  style="overflow:visible;"/>
				</clipPath>
				<path class="st38" d="M663.2,723.1H90.6c-37.6,0-68.1-34.5-68.1-76.8V444.7c0-13.6,9.9-24.7,22-24.7s22,11.1,22,24.7v201.5
					c0,15.1,10.8,27.4,24.2,27.4h572.6c10.7,0,19.4-9.9,19.4-22V401.1c0-11.5-8.2-20.8-18.3-20.8h-93c-12.1,0-22-11.1-22-24.7
					s9.9-24.7,22-24.7h93c34.3,0,62.3,31.5,62.3,70.2v250.6C726.5,691,698.1,723.1,663.2,723.1 M44.5,422.1
					c-11,0-19.9,10.2-19.9,22.6v201.5c0,41.2,29.6,74.8,66.1,74.8h572.6c33.8,0,61.2-31.1,61.2-69.3V401.1c0-37.6-27-68.2-60.2-68.2
					h-93c-11,0-19.9,10.1-19.9,22.6s8.9,22.6,19.9,22.6h93c11.2,0,20.4,10.3,20.4,22.9v250.6c0,13.3-9.6,24.1-21.4,24.1H90.6
					c-14.5,0-26.2-13.2-26.2-29.5V444.7C64.4,432.2,55.4,422.1,44.5,422.1"/>
			</g>
		</g>
		<g>
			<g>
				<defs>
					<rect id="SVGID_73_" width="750" height="758.2"/>
				</defs>
				<clipPath id="SVGID_74_">
					<use xlink:href="#SVGID_73_"  style="overflow:visible;"/>
				</clipPath>
				<path class="st39" d="M351.8,607.8L246.9,444.1c-18.1-28.2-27.5-61.7-25.8-95.5c2.8-56.4,26.6-131.4,129.5-145.7
					c14.5-2,29.3-1.8,43.8,0.8c36.4,6.5,98.9,29.3,115.6,109.5c9.7,46.4-0.3,94.9-25.6,134.4L381.9,607.8
					C374.7,619,359,619,351.8,607.8"/>
			</g>
		</g>
		<g>
			<g>
				<defs>
					<rect id="SVGID_75_" width="750" height="758.2"/>
				</defs>
				<clipPath id="SVGID_76_">
					<use xlink:href="#SVGID_75_"  style="overflow:visible;"/>
				</clipPath>
				<path class="st40" d="M366.8,631.9c-11.4,0-22-5.8-28.3-15.6L233.7,452.6c-20-31.3-30.1-68.5-28.2-104.8
					c4.6-91.4,55.4-148.3,143-160.4c16.3-2.3,32.7-2,48.7,0.9c39.9,7.1,109.6,32.3,128.2,121.8c10.3,49.3,0.2,102.5-27.8,146.1
					L395.1,616.3C388.9,626.1,378.3,631.9,366.8,631.9 M370.2,217.3c-5.8,0-11.5,0.4-17.3,1.2c-73.1,10.1-112.1,54.1-116,130.9
					c-1.5,29.8,6.8,60.5,23.3,86.3l106.7,166.6l104.4-163c23.5-36.7,32.1-81.5,23.5-122.8c-14.1-67.8-63.8-90.3-103-97.3
					C384.6,217.9,377.4,217.3,370.2,217.3"/>
			</g>
		</g>
		<g>
			<g>
				<defs>
					<rect id="SVGID_77_" width="750" height="758.2"/>
				</defs>
				<clipPath id="SVGID_78_">
					<use xlink:href="#SVGID_77_"  style="overflow:visible;"/>
				</clipPath>
				<path class="st41" d="M288.7,300c0,0,32.7-52.4,105.6-39.4c0,0,30.6,7.1,48.2,33.1c0,0,5.9,12.1-6.3,18c0,0-6.3,7.5-20.5-0.4
					c0,0-32.2-33.5-78.7-9.2c0,0-37.3,22.2-28.1,65.3c0,0,1.3,47.8,57.8,51.1c0,0,24.3,2.1,43.6-14.7c0,0,17.3-16.3,30.2-1.3
					c0,0,12.9,11.7-7.6,28.5c0,0-19.3,21.8-64.5,26c0,0-63.6,2-88.4-62.2C279.9,394.9,257.2,351.6,288.7,300"/>
			</g>
		</g>
	</g>
</g>
<g id="K_x2F_K" class="st0">
	<g class="st1">
		<g>
			<g>
				<defs>
					<rect id="SVGID_79_" width="750" height="758.2"/>
				</defs>
				<clipPath id="SVGID_80_">
					<use xlink:href="#SVGID_79_"  style="overflow:visible;"/>
				</clipPath>
				<path class="st42" d="M169.1,390.4H61.7c-24.3,0-44.1-22.4-44.1-49.9V216.1c0-34.4,24.8-62.4,55.2-62.4h97.3
					c12.3,0,23.9-6.7,31-17.9L245,67.2c11.6-18.1,30.3-29,50.1-29H459c23.4,0,44.8,14.5,55.7,37.9l23.6,50.3
					c4.2,8.9,12.3,14.4,21.2,14.4h0.1l106.1-0.6h0.3c15,0,29.1,6.6,39.7,18.7c10.7,12.1,16.4,28.2,16.2,45.3l-0.9,85.9
					c-0.1,13-9.5,23.4-20.9,23.4c-0.1,0-0.2,0-0.3,0c-11.6-0.2-20.8-10.9-20.7-24l0.9-85.9c0-4.3-1.4-8.3-4.1-11.4
					c-2.7-3.1-6.3-4.6-10-4.7l-106.1,0.6h-0.3c-24.4,0-46.7-15.1-58.1-39.5l-23.6-50.3c-3.7-7.8-10.9-12.7-18.7-12.7h-164
					c-6.4,0-12.4,3.5-16.2,9.3l-43.8,68.6c-15,23.5-39.3,37.6-65,37.6H72.8c-7.3,0-13.3,6.8-13.3,15.1v124.4c0,1.4,1,2.5,2.2,2.5
					h107.4c11.6,0,20.9,10.6,20.9,23.7C190.1,379.8,180.7,390.4,169.1,390.4"/>
			</g>
		</g>
		<g>
			<g>
				<defs>
					<rect id="SVGID_81_" width="750" height="758.2"/>
				</defs>
				<clipPath id="SVGID_82_">
					<use xlink:href="#SVGID_81_"  style="overflow:visible;"/>
				</clipPath>
				<path class="st43" d="M169.1,391.4H61.7c-24.9,0-45.1-22.8-45.1-50.9V216.1c0-35,25.2-63.4,56.2-63.4h97.3
					c11.9,0,23.2-6.5,30.2-17.5l43.8-68.6c11.8-18.4,30.9-29.4,51-29.4H459c23.8,0,45.5,14.7,56.7,38.5l23.6,50.3
					c4,8.5,11.7,13.8,20.2,13.8h0.1l106.4-0.6c15.3,0,29.7,6.8,40.5,19c10.8,12.3,16.7,28.6,16.5,46l-0.9,85.9
					c-0.2,13.5-10,24.4-22,24.4h-0.3c-12.1-0.2-21.8-11.4-21.7-25l0.9-85.9c0-4-1.3-7.8-3.8-10.7c-2.4-2.7-5.8-4.3-9.3-4.3
					l-106.5,0.6c-24.8,0-47.5-15.4-59.1-40.1l-23.6-50.3c-3.5-7.5-10.3-12.1-17.8-12.1H295.1c-6,0-11.8,3.3-15.3,8.9L236,164
					c-15.2,23.8-39.8,38-65.9,38H72.8c-6.8,0-12.3,6.3-12.3,14v124.4c0,0.8,0.5,1.5,1.2,1.5h107.4c12.1,0,22,11.1,22,24.7
					C191.1,380.3,181.3,391.4,169.1,391.4 M72.8,154.8c-29.9,0-54.2,27.5-54.2,61.4v124.4c0,26.9,19.3,48.8,43.1,48.8h107.4
					c11,0,19.9-10.2,19.9-22.6c0-12.5-8.9-22.6-19.9-22.6H61.7c-1.8,0-3.2-1.6-3.2-3.5V216.1c0-8.9,6.4-16.1,14.4-16.1h97.3
					c25.3,0,49.3-13.9,64.1-37.1l43.9-68.6c3.9-6.2,10.3-9.8,17-9.8H459c8.3,0,15.8,5.1,19.7,13.3l23.6,50.3
					c11.3,24,33.2,38.9,57.2,38.9h0.3l106.1-0.6c4.1,0.1,8.1,1.9,10.8,5c2.8,3.2,4.4,7.5,4.3,12.1l-0.9,85.9
					c-0.1,12.5,8.7,22.8,19.7,22.9h0.2c10.8,0,19.8-10,19.9-22.4l0.9-85.9c0.2-16.8-5.5-32.7-16-44.6
					c-10.4-11.8-24.2-18.3-38.9-18.3h-0.3l-106.2,0.6c-9.3,0-17.8-5.7-22.1-15l-23.6-50.3C503,53.5,482,39.2,459,39.2H295.1
					c-19.5,0-37.9,10.6-49.3,28.5L202,136.3c-7.4,11.5-19.3,18.4-31.9,18.4L72.8,154.8L72.8,154.8z"/>
			</g>
		</g>
		<g>
			<g>
				<defs>
					<rect id="SVGID_83_" width="750" height="758.2"/>
				</defs>
				<clipPath id="SVGID_84_">
					<use xlink:href="#SVGID_83_"  style="overflow:visible;"/>
				</clipPath>
				<path class="st44" d="M663.2,722H90.6c-37,0-67.1-34-67.1-75.8V444.7c0-13.1,9.4-23.7,21-23.7s21,10.6,21,23.7v201.5
					c0,15.7,11.3,28.5,25.2,28.5h572.6c11.2,0,20.4-10.3,20.4-23V401.1c0-12.1-8.7-21.9-19.3-21.9h-93c-11.6,0-21-10.6-21-23.7
					s9.4-23.7,21-23.7h93c33.8,0,61.2,31,61.2,69.2v250.6C725.5,690.5,697.5,722,663.2,722"/>
			</g>
		</g>
		<g>
			<g>
				<defs>
					<rect id="SVGID_85_" width="750" height="758.2"/>
				</defs>
				<clipPath id="SVGID_86_">
					<use xlink:href="#SVGID_85_"  style="overflow:visible;"/>
				</clipPath>
				<path class="st45" d="M663.2,723.1H90.6c-37.6,0-68.1-34.5-68.1-76.8V444.7c0-13.6,9.9-24.7,22-24.7s22,11.1,22,24.7v201.5
					c0,15.1,10.8,27.4,24.2,27.4h572.6c10.7,0,19.4-9.9,19.4-22V401.1c0-11.5-8.2-20.8-18.3-20.8h-93c-12.1,0-22-11.1-22-24.7
					s9.9-24.7,22-24.7h93c34.3,0,62.3,31.5,62.3,70.2v250.6C726.5,691,698.1,723.1,663.2,723.1 M44.5,422.1
					c-11,0-19.9,10.2-19.9,22.6v201.5c0,41.2,29.6,74.8,66.1,74.8h572.6c33.8,0,61.2-31.1,61.2-69.3V401.1c0-37.6-27-68.2-60.2-68.2
					h-93c-11,0-19.9,10.1-19.9,22.6s8.9,22.6,19.9,22.6h93c11.2,0,20.4,10.3,20.4,22.9v250.6c0,13.3-9.6,24.1-21.4,24.1H90.6
					c-14.5,0-26.2-13.2-26.2-29.5V444.7C64.4,432.2,55.4,422.1,44.5,422.1"/>
			</g>
		</g>
		<g>
			<g>
				<defs>
					<rect id="SVGID_87_" width="750" height="758.2"/>
				</defs>
				<clipPath id="SVGID_88_">
					<use xlink:href="#SVGID_87_"  style="overflow:visible;"/>
				</clipPath>
				<path class="st46" d="M351.8,607.8L246.9,444.1c-18.1-28.2-27.5-61.7-25.8-95.5c2.8-56.4,26.6-131.4,129.5-145.7
					c14.5-2,29.3-1.8,43.8,0.8c36.4,6.5,98.9,29.3,115.6,109.5c9.7,46.4-0.3,94.9-25.6,134.4L381.9,607.8
					C374.7,619,359,619,351.8,607.8"/>
			</g>
		</g>
		<g>
			<g>
				<defs>
					<rect id="SVGID_89_" width="750" height="758.2"/>
				</defs>
				<clipPath id="SVGID_90_">
					<use xlink:href="#SVGID_89_"  style="overflow:visible;"/>
				</clipPath>
				<path class="st47" d="M366.8,631.9c-11.4,0-22-5.8-28.3-15.6L233.7,452.6c-20-31.3-30.1-68.5-28.2-104.8
					c4.6-91.4,55.4-148.3,143-160.4c16.3-2.3,32.7-2,48.7,0.9c39.9,7.1,109.6,32.3,128.2,121.8c10.3,49.3,0.2,102.5-27.8,146.1
					L395.1,616.3C388.9,626.1,378.3,631.9,366.8,631.9 M370.2,217.3c-5.8,0-11.5,0.4-17.3,1.2c-73.1,10.1-112.1,54.1-116,130.9
					c-1.5,29.8,6.8,60.5,23.3,86.3l106.7,166.6l104.4-163c23.5-36.7,32.1-81.5,23.5-122.8c-14.1-67.8-63.8-90.3-103-97.3
					C384.6,217.9,377.4,217.3,370.2,217.3"/>
			</g>
		</g>
		<g>
			<g>
				<defs>
					<rect id="SVGID_91_" width="750" height="758.2"/>
				</defs>
				<clipPath id="SVGID_92_">
					<use xlink:href="#SVGID_91_"  style="overflow:visible;"/>
				</clipPath>
				<path class="st48" d="M288.7,300c0,0,32.7-52.4,105.6-39.4c0,0,30.6,7.1,48.2,33.1c0,0,5.9,12.1-6.3,18c0,0-6.3,7.5-20.5-0.4
					c0,0-32.2-33.5-78.7-9.2c0,0-37.3,22.2-28.1,65.3c0,0,1.3,47.8,57.8,51.1c0,0,24.3,2.1,43.6-14.7c0,0,17.3-16.3,30.2-1.3
					c0,0,12.9,11.7-7.6,28.5c0,0-19.3,21.8-64.5,26c0,0-63.6,2-88.4-62.2C279.9,394.9,257.2,351.6,288.7,300"/>
			</g>
		</g>
	</g>
</g>
<g id="K_x2F_W" class="st0">
	<g class="st1">
		<g>
			<g>
				<defs>
					<rect id="SVGID_93_" width="750" height="758.2"/>
				</defs>
				<clipPath id="SVGID_94_">
					<use xlink:href="#SVGID_93_"  style="overflow:visible;"/>
				</clipPath>
				<path class="st49" d="M169.1,390.4H61.7c-24.3,0-44.1-22.4-44.1-49.9V216.1c0-34.4,24.8-62.4,55.2-62.4h97.3
					c12.3,0,23.9-6.7,31-17.9L245,67.2c11.6-18.1,30.3-29,50.1-29H459c23.4,0,44.8,14.5,55.7,37.9l23.6,50.3
					c4.2,8.9,12.3,14.4,21.2,14.4h0.1l106.1-0.6h0.3c15,0,29.1,6.6,39.7,18.7c10.7,12.1,16.4,28.2,16.2,45.3l-0.9,85.9
					c-0.1,13-9.5,23.4-20.9,23.4c-0.1,0-0.2,0-0.3,0c-11.6-0.2-20.8-10.9-20.7-24l0.9-85.9c0-4.3-1.4-8.3-4.1-11.4
					c-2.7-3.1-6.3-4.6-10-4.7l-106.1,0.6h-0.3c-24.4,0-46.7-15.1-58.1-39.5l-23.6-50.3c-3.7-7.8-10.9-12.7-18.7-12.7h-164
					c-6.4,0-12.4,3.5-16.2,9.3l-43.8,68.6c-15,23.5-39.3,37.6-65,37.6H72.8c-7.3,0-13.3,6.8-13.3,15.1v124.4c0,1.4,1,2.5,2.2,2.5
					h107.4c11.6,0,20.9,10.6,20.9,23.7C190.1,379.8,180.7,390.4,169.1,390.4"/>
			</g>
		</g>
		<g>
			<g>
				<defs>
					<rect id="SVGID_95_" width="750" height="758.2"/>
				</defs>
				<clipPath id="SVGID_96_">
					<use xlink:href="#SVGID_95_"  style="overflow:visible;"/>
				</clipPath>
				<path class="st50" d="M169.1,391.4H61.7c-24.9,0-45.1-22.8-45.1-50.9V216.1c0-35,25.2-63.4,56.2-63.4h97.3
					c11.9,0,23.2-6.5,30.2-17.5l43.8-68.6c11.8-18.4,30.9-29.4,51-29.4H459c23.8,0,45.5,14.7,56.7,38.5l23.6,50.3
					c4,8.5,11.7,13.8,20.2,13.8h0.1l106.4-0.6c15.3,0,29.7,6.8,40.5,19c10.8,12.3,16.7,28.6,16.5,46l-0.9,85.9
					c-0.2,13.5-10,24.4-22,24.4h-0.3c-12.1-0.2-21.8-11.4-21.7-25l0.9-85.9c0-4-1.3-7.8-3.8-10.7c-2.4-2.7-5.8-4.3-9.3-4.3
					l-106.5,0.6c-24.8,0-47.5-15.4-59.1-40.1l-23.6-50.3c-3.5-7.5-10.3-12.1-17.8-12.1H295.1c-6,0-11.8,3.3-15.3,8.9L236,164
					c-15.2,23.8-39.8,38-65.9,38H72.8c-6.8,0-12.3,6.3-12.3,14v124.4c0,0.8,0.5,1.5,1.2,1.5h107.4c12.1,0,22,11.1,22,24.7
					C191.1,380.3,181.3,391.4,169.1,391.4 M72.8,154.8c-29.9,0-54.2,27.5-54.2,61.4v124.4c0,26.9,19.3,48.8,43.1,48.8h107.4
					c11,0,19.9-10.2,19.9-22.6c0-12.5-8.9-22.6-19.9-22.6H61.7c-1.8,0-3.2-1.6-3.2-3.5V216.1c0-8.9,6.4-16.1,14.4-16.1h97.3
					c25.3,0,49.3-13.9,64.1-37.1l43.9-68.6c3.9-6.2,10.3-9.8,17-9.8H459c8.3,0,15.8,5.1,19.7,13.3l23.6,50.3
					c11.3,24,33.2,38.9,57.2,38.9h0.3l106.1-0.6c4.1,0.1,8.1,1.9,10.8,5c2.8,3.2,4.4,7.5,4.3,12.1l-0.9,85.9
					c-0.1,12.5,8.7,22.8,19.7,22.9h0.2c10.8,0,19.8-10,19.9-22.4l0.9-85.9c0.2-16.8-5.5-32.7-16-44.6
					c-10.4-11.8-24.2-18.3-38.9-18.3h-0.3l-106.2,0.6c-9.3,0-17.8-5.7-22.1-15l-23.6-50.3C503,53.5,482,39.2,459,39.2H295.1
					c-19.5,0-37.9,10.6-49.3,28.5L202,136.3c-7.4,11.5-19.3,18.4-31.9,18.4L72.8,154.8L72.8,154.8z"/>
			</g>
		</g>
		<g>
			<g>
				<defs>
					<rect id="SVGID_97_" width="750" height="758.2"/>
				</defs>
				<clipPath id="SVGID_98_">
					<use xlink:href="#SVGID_97_"  style="overflow:visible;"/>
				</clipPath>
				<path class="st51" d="M663.2,722H90.6c-37,0-67.1-34-67.1-75.8V444.7c0-13.1,9.4-23.7,21-23.7s21,10.6,21,23.7v201.5
					c0,15.7,11.3,28.5,25.2,28.5h572.6c11.2,0,20.4-10.3,20.4-23V401.1c0-12.1-8.7-21.9-19.3-21.9h-93c-11.6,0-21-10.6-21-23.7
					s9.4-23.7,21-23.7h93c33.8,0,61.2,31,61.2,69.2v250.6C725.5,690.5,697.5,722,663.2,722"/>
			</g>
		</g>
		<g>
			<g>
				<defs>
					<rect id="SVGID_99_" width="750" height="758.2"/>
				</defs>
				<clipPath id="SVGID_100_">
					<use xlink:href="#SVGID_99_"  style="overflow:visible;"/>
				</clipPath>
				<path class="st52" d="M663.2,723.1H90.6c-37.6,0-68.1-34.5-68.1-76.8V444.7c0-13.6,9.9-24.7,22-24.7s22,11.1,22,24.7v201.5
					c0,15.1,10.8,27.4,24.2,27.4h572.6c10.7,0,19.4-9.9,19.4-22V401.1c0-11.5-8.2-20.8-18.3-20.8h-93c-12.1,0-22-11.1-22-24.7
					s9.9-24.7,22-24.7h93c34.3,0,62.3,31.5,62.3,70.2v250.6C726.5,691,698.1,723.1,663.2,723.1 M44.5,422.1
					c-11,0-19.9,10.2-19.9,22.6v201.5c0,41.2,29.6,74.8,66.1,74.8h572.6c33.8,0,61.2-31.1,61.2-69.3V401.1c0-37.6-27-68.2-60.2-68.2
					h-93c-11,0-19.9,10.1-19.9,22.6s8.9,22.6,19.9,22.6h93c11.2,0,20.4,10.3,20.4,22.9v250.6c0,13.3-9.6,24.1-21.4,24.1H90.6
					c-14.5,0-26.2-13.2-26.2-29.5V444.7C64.4,432.2,55.4,422.1,44.5,422.1"/>
			</g>
		</g>
		<g>
			<g>
				<defs>
					<rect id="SVGID_101_" width="750" height="758.2"/>
				</defs>
				<clipPath id="SVGID_102_">
					<use xlink:href="#SVGID_101_"  style="overflow:visible;"/>
				</clipPath>
				<path class="st53" d="M351.8,607.8L246.9,444.1c-18.1-28.2-27.5-61.7-25.8-95.5c2.8-56.4,26.6-131.4,129.5-145.7
					c14.5-2,29.3-1.8,43.8,0.8c36.4,6.5,98.9,29.3,115.6,109.5c9.7,46.4-0.3,94.9-25.6,134.4L381.9,607.8
					C374.7,619,359,619,351.8,607.8"/>
			</g>
		</g>
		<g>
			<g>
				<defs>
					<rect id="SVGID_103_" width="750" height="758.2"/>
				</defs>
				<clipPath id="SVGID_104_">
					<use xlink:href="#SVGID_103_"  style="overflow:visible;"/>
				</clipPath>
				<path class="st54" d="M366.8,631.9c-11.4,0-22-5.8-28.3-15.6L233.7,452.6c-20-31.3-30.1-68.5-28.2-104.8
					c4.6-91.4,55.4-148.3,143-160.4c16.3-2.3,32.7-2,48.7,0.9c39.9,7.1,109.6,32.3,128.2,121.8c10.3,49.3,0.2,102.5-27.8,146.1
					L395.1,616.3C388.9,626.1,378.3,631.9,366.8,631.9 M370.2,217.3c-5.8,0-11.5,0.4-17.3,1.2c-73.1,10.1-112.1,54.1-116,130.9
					c-1.5,29.8,6.8,60.5,23.3,86.3l106.7,166.6l104.4-163c23.5-36.7,32.1-81.5,23.5-122.8c-14.1-67.8-63.8-90.3-103-97.3
					C384.6,217.9,377.4,217.3,370.2,217.3"/>
			</g>
		</g>
		<g>
			<g>
				<defs>
					<rect id="SVGID_105_" width="750" height="758.2"/>
				</defs>
				<clipPath id="SVGID_106_">
					<use xlink:href="#SVGID_105_"  style="overflow:visible;"/>
				</clipPath>
				<path class="st55" d="M288.7,300c0,0,32.7-52.4,105.6-39.4c0,0,30.6,7.1,48.2,33.1c0,0,5.9,12.1-6.3,18c0,0-6.3,7.5-20.5-0.4
					c0,0-32.2-33.5-78.7-9.2c0,0-37.3,22.2-28.1,65.3c0,0,1.3,47.8,57.8,51.1c0,0,24.3,2.1,43.6-14.7c0,0,17.3-16.3,30.2-1.3
					c0,0,12.9,11.7-7.6,28.5c0,0-19.3,21.8-64.5,26c0,0-63.6,2-88.4-62.2C279.9,394.9,257.2,351.6,288.7,300"/>
			</g>
		</g>
	</g>
</g>
<g id="W_x2F_W" class="st0">
	<g class="st1">
		<g>
			<g>
				<defs>
					<rect id="SVGID_107_" width="750" height="758.2"/>
				</defs>
				<clipPath id="SVGID_108_">
					<use xlink:href="#SVGID_107_"  style="overflow:visible;"/>
				</clipPath>
				<path class="st56" d="M169.1,390.4H61.7c-24.3,0-44.1-22.4-44.1-49.9V216.1c0-34.4,24.8-62.4,55.2-62.4h97.3
					c12.3,0,23.9-6.7,31-17.9L245,67.2c11.6-18.1,30.3-29,50.1-29H459c23.4,0,44.8,14.5,55.7,37.9l23.6,50.3
					c4.2,8.9,12.3,14.4,21.2,14.4h0.1l106.1-0.6h0.3c15,0,29.1,6.6,39.7,18.7c10.7,12.1,16.4,28.2,16.2,45.3l-0.9,85.9
					c-0.1,13-9.5,23.4-20.9,23.4c-0.1,0-0.2,0-0.3,0c-11.6-0.2-20.8-10.9-20.7-24l0.9-85.9c0-4.3-1.4-8.3-4.1-11.4
					c-2.7-3.1-6.3-4.6-10-4.7l-106.1,0.6h-0.3c-24.4,0-46.7-15.1-58.1-39.5l-23.6-50.3c-3.7-7.8-10.9-12.7-18.7-12.7h-164
					c-6.4,0-12.4,3.5-16.2,9.3l-43.8,68.6c-15,23.5-39.3,37.6-65,37.6H72.8c-7.3,0-13.3,6.8-13.3,15.1v124.4c0,1.4,1,2.5,2.2,2.5
					h107.4c11.6,0,20.9,10.6,20.9,23.7C190.1,379.8,180.7,390.4,169.1,390.4"/>
			</g>
		</g>
		<g>
			<g>
				<defs>
					<rect id="SVGID_109_" width="750" height="758.2"/>
				</defs>
				<clipPath id="SVGID_110_">
					<use xlink:href="#SVGID_109_"  style="overflow:visible;"/>
				</clipPath>
				<path class="st57" d="M169.1,391.4H61.7c-24.9,0-45.1-22.8-45.1-50.9V216.1c0-35,25.2-63.4,56.2-63.4h97.3
					c11.9,0,23.2-6.5,30.2-17.5l43.8-68.6c11.8-18.4,30.9-29.4,51-29.4H459c23.8,0,45.5,14.7,56.7,38.5l23.6,50.3
					c4,8.5,11.7,13.8,20.2,13.8h0.1l106.4-0.6c15.3,0,29.7,6.8,40.5,19c10.8,12.3,16.7,28.6,16.5,46l-0.9,85.9
					c-0.2,13.5-10,24.4-22,24.4h-0.3c-12.1-0.2-21.8-11.4-21.7-25l0.9-85.9c0-4-1.3-7.8-3.8-10.7c-2.4-2.7-5.8-4.3-9.3-4.3
					l-106.5,0.6c-24.8,0-47.5-15.4-59.1-40.1l-23.6-50.3c-3.5-7.5-10.3-12.1-17.8-12.1H295.1c-6,0-11.8,3.3-15.3,8.9L236,164
					c-15.2,23.8-39.8,38-65.9,38H72.8c-6.8,0-12.3,6.3-12.3,14v124.4c0,0.8,0.5,1.5,1.2,1.5h107.4c12.1,0,22,11.1,22,24.7
					C191.1,380.3,181.3,391.4,169.1,391.4 M72.8,154.8c-29.9,0-54.2,27.5-54.2,61.4v124.4c0,26.9,19.3,48.8,43.1,48.8h107.4
					c11,0,19.9-10.2,19.9-22.6c0-12.5-8.9-22.6-19.9-22.6H61.7c-1.8,0-3.2-1.6-3.2-3.5V216.1c0-8.9,6.4-16.1,14.4-16.1h97.3
					c25.3,0,49.3-13.9,64.1-37.1l43.9-68.6c3.9-6.2,10.3-9.8,17-9.8H459c8.3,0,15.8,5.1,19.7,13.3l23.6,50.3
					c11.3,24,33.2,38.9,57.2,38.9h0.3l106.1-0.6c4.1,0.1,8.1,1.9,10.8,5c2.8,3.2,4.4,7.5,4.3,12.1l-0.9,85.9
					c-0.1,12.5,8.7,22.8,19.7,22.9h0.2c10.8,0,19.8-10,19.9-22.4l0.9-85.9c0.2-16.8-5.5-32.7-16-44.6
					c-10.4-11.8-24.2-18.3-38.9-18.3h-0.3l-106.2,0.6c-9.3,0-17.8-5.7-22.1-15l-23.6-50.3C503,53.5,482,39.2,459,39.2H295.1
					c-19.5,0-37.9,10.6-49.3,28.5L202,136.3c-7.4,11.5-19.3,18.4-31.9,18.4L72.8,154.8L72.8,154.8z"/>
			</g>
		</g>
		<g>
			<g>
				<defs>
					<rect id="SVGID_111_" width="750" height="758.2"/>
				</defs>
				<clipPath id="SVGID_112_">
					<use xlink:href="#SVGID_111_"  style="overflow:visible;"/>
				</clipPath>
				<path class="st58" d="M663.2,722H90.6c-37,0-67.1-34-67.1-75.8V444.7c0-13.1,9.4-23.7,21-23.7s21,10.6,21,23.7v201.5
					c0,15.7,11.3,28.5,25.2,28.5h572.6c11.2,0,20.4-10.3,20.4-23V401.1c0-12.1-8.7-21.9-19.3-21.9h-93c-11.6,0-21-10.6-21-23.7
					s9.4-23.7,21-23.7h93c33.8,0,61.2,31,61.2,69.2v250.6C725.5,690.5,697.5,722,663.2,722"/>
			</g>
		</g>
		<g>
			<g>
				<defs>
					<rect id="SVGID_113_" width="750" height="758.2"/>
				</defs>
				<clipPath id="SVGID_114_">
					<use xlink:href="#SVGID_113_"  style="overflow:visible;"/>
				</clipPath>
				<path class="st59" d="M663.2,723.1H90.6c-37.6,0-68.1-34.5-68.1-76.8V444.7c0-13.6,9.9-24.7,22-24.7s22,11.1,22,24.7v201.5
					c0,15.1,10.8,27.4,24.2,27.4h572.6c10.7,0,19.4-9.9,19.4-22V401.1c0-11.5-8.2-20.8-18.3-20.8h-93c-12.1,0-22-11.1-22-24.7
					s9.9-24.7,22-24.7h93c34.3,0,62.3,31.5,62.3,70.2v250.6C726.5,691,698.1,723.1,663.2,723.1 M44.5,422.1
					c-11,0-19.9,10.2-19.9,22.6v201.5c0,41.2,29.6,74.8,66.1,74.8h572.6c33.8,0,61.2-31.1,61.2-69.3V401.1c0-37.6-27-68.2-60.2-68.2
					h-93c-11,0-19.9,10.1-19.9,22.6s8.9,22.6,19.9,22.6h93c11.2,0,20.4,10.3,20.4,22.9v250.6c0,13.3-9.6,24.1-21.4,24.1H90.6
					c-14.5,0-26.2-13.2-26.2-29.5V444.7C64.4,432.2,55.4,422.1,44.5,422.1"/>
			</g>
		</g>
		<g>
			<g>
				<defs>
					<rect id="SVGID_115_" width="750" height="758.2"/>
				</defs>
				<clipPath id="SVGID_116_">
					<use xlink:href="#SVGID_115_"  style="overflow:visible;"/>
				</clipPath>
				<path class="st60" d="M351.8,607.8L246.9,444.1c-18.1-28.2-27.5-61.7-25.8-95.5c2.8-56.4,26.6-131.4,129.5-145.7
					c14.5-2,29.3-1.8,43.8,0.8c36.4,6.5,98.9,29.3,115.6,109.5c9.7,46.4-0.3,94.9-25.6,134.4L381.9,607.8
					C374.7,619,359,619,351.8,607.8"/>
			</g>
		</g>
		<g>
			<g>
				<defs>
					<rect id="SVGID_117_" width="750" height="758.2"/>
				</defs>
				<clipPath id="SVGID_118_">
					<use xlink:href="#SVGID_117_"  style="overflow:visible;"/>
				</clipPath>
				<path class="st61" d="M366.8,631.9c-11.4,0-22-5.8-28.3-15.6L233.7,452.6c-20-31.3-30.1-68.5-28.2-104.8
					c4.6-91.4,55.4-148.3,143-160.4c16.3-2.3,32.7-2,48.7,0.9c39.9,7.1,109.6,32.3,128.2,121.8c10.3,49.3,0.2,102.5-27.8,146.1
					L395.1,616.3C388.9,626.1,378.3,631.9,366.8,631.9 M370.2,217.3c-5.8,0-11.5,0.4-17.3,1.2c-73.1,10.1-112.1,54.1-116,130.9
					c-1.5,29.8,6.8,60.5,23.3,86.3l106.7,166.6l104.4-163c23.5-36.7,32.1-81.5,23.5-122.8c-14.1-67.8-63.8-90.3-103-97.3
					C384.6,217.9,377.4,217.3,370.2,217.3"/>
			</g>
		</g>
		<g>
			<g>
				<defs>
					<rect id="SVGID_119_" width="750" height="758.2"/>
				</defs>
				<clipPath id="SVGID_120_">
					<use xlink:href="#SVGID_119_"  style="overflow:visible;"/>
				</clipPath>
				<path class="st62" d="M288.7,300c0,0,32.7-52.4,105.6-39.4c0,0,30.6,7.1,48.2,33.1c0,0,5.9,12.1-6.3,18c0,0-6.3,7.5-20.5-0.4
					c0,0-32.2-33.5-78.7-9.2c0,0-37.3,22.2-28.1,65.3c0,0,1.3,47.8,57.8,51.1c0,0,24.3,2.1,43.6-14.7c0,0,17.3-16.3,30.2-1.3
					c0,0,12.9,11.7-7.6,28.5c0,0-19.3,21.8-64.5,26c0,0-63.6,2-88.4-62.2C279.9,394.9,257.2,351.6,288.7,300"/>
			</g>
		</g>
	</g>
</g>
<g id="W_x2F_K" class="st0">
	<g class="st1">
		<g>
			<g>
				<defs>
					<rect id="SVGID_121_" width="750" height="758.2"/>
				</defs>
				<clipPath id="SVGID_122_">
					<use xlink:href="#SVGID_121_"  style="overflow:visible;"/>
				</clipPath>
				<path class="st63" d="M169.1,390.4H61.7c-24.3,0-44.1-22.4-44.1-49.9V216.1c0-34.4,24.8-62.4,55.2-62.4h97.3
					c12.3,0,23.9-6.7,31-17.9L245,67.2c11.6-18.1,30.3-29,50.1-29H459c23.4,0,44.8,14.5,55.7,37.9l23.6,50.3
					c4.2,8.9,12.3,14.4,21.2,14.4h0.1l106.1-0.6h0.3c15,0,29.1,6.6,39.7,18.7c10.7,12.1,16.4,28.2,16.2,45.3l-0.9,85.9
					c-0.1,13-9.5,23.4-20.9,23.4c-0.1,0-0.2,0-0.3,0c-11.6-0.2-20.8-10.9-20.7-24l0.9-85.9c0-4.3-1.4-8.3-4.1-11.4
					c-2.7-3.1-6.3-4.6-10-4.7l-106.1,0.6h-0.3c-24.4,0-46.7-15.1-58.1-39.5l-23.6-50.3c-3.7-7.8-10.9-12.7-18.7-12.7h-164
					c-6.4,0-12.4,3.5-16.2,9.3l-43.8,68.6c-15,23.5-39.3,37.6-65,37.6H72.8c-7.3,0-13.3,6.8-13.3,15.1v124.4c0,1.4,1,2.5,2.2,2.5
					h107.4c11.6,0,20.9,10.6,20.9,23.7C190.1,379.8,180.7,390.4,169.1,390.4"/>
			</g>
		</g>
		<g>
			<g>
				<defs>
					<rect id="SVGID_123_" width="750" height="758.2"/>
				</defs>
				<clipPath id="SVGID_124_">
					<use xlink:href="#SVGID_123_"  style="overflow:visible;"/>
				</clipPath>
				<path class="st64" d="M169.1,391.4H61.7c-24.9,0-45.1-22.8-45.1-50.9V216.1c0-35,25.2-63.4,56.2-63.4h97.3
					c11.9,0,23.2-6.5,30.2-17.5l43.8-68.6c11.8-18.4,30.9-29.4,51-29.4H459c23.8,0,45.5,14.7,56.7,38.5l23.6,50.3
					c4,8.5,11.7,13.8,20.2,13.8h0.1l106.4-0.6c15.3,0,29.7,6.8,40.5,19c10.8,12.3,16.7,28.6,16.5,46l-0.9,85.9
					c-0.2,13.5-10,24.4-22,24.4h-0.3c-12.1-0.2-21.8-11.4-21.7-25l0.9-85.9c0-4-1.3-7.8-3.8-10.7c-2.4-2.7-5.8-4.3-9.3-4.3
					l-106.5,0.6c-24.8,0-47.5-15.4-59.1-40.1l-23.6-50.3c-3.5-7.5-10.3-12.1-17.8-12.1H295.1c-6,0-11.8,3.3-15.3,8.9L236,164
					c-15.2,23.8-39.8,38-65.9,38H72.8c-6.8,0-12.3,6.3-12.3,14v124.4c0,0.8,0.5,1.5,1.2,1.5h107.4c12.1,0,22,11.1,22,24.7
					C191.1,380.3,181.3,391.4,169.1,391.4 M72.8,154.8c-29.9,0-54.2,27.5-54.2,61.4v124.4c0,26.9,19.3,48.8,43.1,48.8h107.4
					c11,0,19.9-10.2,19.9-22.6c0-12.5-8.9-22.6-19.9-22.6H61.7c-1.8,0-3.2-1.6-3.2-3.5V216.1c0-8.9,6.4-16.1,14.4-16.1h97.3
					c25.3,0,49.3-13.9,64.1-37.1l43.9-68.6c3.9-6.2,10.3-9.8,17-9.8H459c8.3,0,15.8,5.1,19.7,13.3l23.6,50.3
					c11.3,24,33.2,38.9,57.2,38.9h0.3l106.1-0.6c4.1,0.1,8.1,1.9,10.8,5c2.8,3.2,4.4,7.5,4.3,12.1l-0.9,85.9
					c-0.1,12.5,8.7,22.8,19.7,22.9h0.2c10.8,0,19.8-10,19.9-22.4l0.9-85.9c0.2-16.8-5.5-32.7-16-44.6
					c-10.4-11.8-24.2-18.3-38.9-18.3h-0.3l-106.2,0.6c-9.3,0-17.8-5.7-22.1-15l-23.6-50.3C503,53.5,482,39.2,459,39.2H295.1
					c-19.5,0-37.9,10.6-49.3,28.5L202,136.3c-7.4,11.5-19.3,18.4-31.9,18.4L72.8,154.8L72.8,154.8z"/>
			</g>
		</g>
		<g>
			<g>
				<defs>
					<rect id="SVGID_125_" width="750" height="758.2"/>
				</defs>
				<clipPath id="SVGID_126_">
					<use xlink:href="#SVGID_125_"  style="overflow:visible;"/>
				</clipPath>
				<path class="st65" d="M663.2,722H90.6c-37,0-67.1-34-67.1-75.8V444.7c0-13.1,9.4-23.7,21-23.7s21,10.6,21,23.7v201.5
					c0,15.7,11.3,28.5,25.2,28.5h572.6c11.2,0,20.4-10.3,20.4-23V401.1c0-12.1-8.7-21.9-19.3-21.9h-93c-11.6,0-21-10.6-21-23.7
					s9.4-23.7,21-23.7h93c33.8,0,61.2,31,61.2,69.2v250.6C725.5,690.5,697.5,722,663.2,722"/>
			</g>
		</g>
		<g>
			<g>
				<defs>
					<rect id="SVGID_127_" width="750" height="758.2"/>
				</defs>
				<clipPath id="SVGID_128_">
					<use xlink:href="#SVGID_127_"  style="overflow:visible;"/>
				</clipPath>
				<path class="st66" d="M663.2,723.1H90.6c-37.6,0-68.1-34.5-68.1-76.8V444.7c0-13.6,9.9-24.7,22-24.7s22,11.1,22,24.7v201.5
					c0,15.1,10.8,27.4,24.2,27.4h572.6c10.7,0,19.4-9.9,19.4-22V401.1c0-11.5-8.2-20.8-18.3-20.8h-93c-12.1,0-22-11.1-22-24.7
					s9.9-24.7,22-24.7h93c34.3,0,62.3,31.5,62.3,70.2v250.6C726.5,691,698.1,723.1,663.2,723.1 M44.5,422.1
					c-11,0-19.9,10.2-19.9,22.6v201.5c0,41.2,29.6,74.8,66.1,74.8h572.6c33.8,0,61.2-31.1,61.2-69.3V401.1c0-37.6-27-68.2-60.2-68.2
					h-93c-11,0-19.9,10.1-19.9,22.6s8.9,22.6,19.9,22.6h93c11.2,0,20.4,10.3,20.4,22.9v250.6c0,13.3-9.6,24.1-21.4,24.1H90.6
					c-14.5,0-26.2-13.2-26.2-29.5V444.7C64.4,432.2,55.4,422.1,44.5,422.1"/>
			</g>
		</g>
		<g>
			<g>
				<defs>
					<rect id="SVGID_129_" width="750" height="758.2"/>
				</defs>
				<clipPath id="SVGID_130_">
					<use xlink:href="#SVGID_129_"  style="overflow:visible;"/>
				</clipPath>
				<path class="st67" d="M351.8,607.8L246.9,444.1c-18.1-28.2-27.5-61.7-25.8-95.5c2.8-56.4,26.6-131.4,129.5-145.7
					c14.5-2,29.3-1.8,43.8,0.8c36.4,6.5,98.9,29.3,115.6,109.5c9.7,46.4-0.3,94.9-25.6,134.4L381.9,607.8
					C374.7,619,359,619,351.8,607.8"/>
			</g>
		</g>
		<g>
			<g>
				<defs>
					<rect id="SVGID_131_" width="750" height="758.2"/>
				</defs>
				<clipPath id="SVGID_132_">
					<use xlink:href="#SVGID_131_"  style="overflow:visible;"/>
				</clipPath>
				<path class="st68" d="M366.8,631.9c-11.4,0-22-5.8-28.3-15.6L233.7,452.6c-20-31.3-30.1-68.5-28.2-104.8
					c4.6-91.4,55.4-148.3,143-160.4c16.3-2.3,32.7-2,48.7,0.9c39.9,7.1,109.6,32.3,128.2,121.8c10.3,49.3,0.2,102.5-27.8,146.1
					L395.1,616.3C388.9,626.1,378.3,631.9,366.8,631.9 M370.2,217.3c-5.8,0-11.5,0.4-17.3,1.2c-73.1,10.1-112.1,54.1-116,130.9
					c-1.5,29.8,6.8,60.5,23.3,86.3l106.7,166.6l104.4-163c23.5-36.7,32.1-81.5,23.5-122.8c-14.1-67.8-63.8-90.3-103-97.3
					C384.6,217.9,377.4,217.3,370.2,217.3"/>
			</g>
		</g>
		<g>
			<g>
				<defs>
					<rect id="SVGID_133_" width="750" height="758.2"/>
				</defs>
				<clipPath id="SVGID_134_">
					<use xlink:href="#SVGID_133_"  style="overflow:visible;"/>
				</clipPath>
				<path class="st69" d="M288.7,300c0,0,32.7-52.4,105.6-39.4c0,0,30.6,7.1,48.2,33.1c0,0,5.9,12.1-6.3,18c0,0-6.3,7.5-20.5-0.4
					c0,0-32.2-33.5-78.7-9.2c0,0-37.3,22.2-28.1,65.3c0,0,1.3,47.8,57.8,51.1c0,0,24.3,2.1,43.6-14.7c0,0,17.3-16.3,30.2-1.3
					c0,0,12.9,11.7-7.6,28.5c0,0-19.3,21.8-64.5,26c0,0-63.6,2-88.4-62.2C279.9,394.9,257.2,351.6,288.7,300"/>
			</g>
		</g>
	</g>
</g>
</svg>
