<?xml version="1.0" encoding="utf-8"?>
<!-- Generator: Adobe Illustrator 23.1.1, SVG Export Plug-In . SVG Version: 6.00 Build 0)  -->
<svg version="1.1" xmlns="http://www.w3.org/2000/svg" xmlns:xlink="http://www.w3.org/1999/xlink" x="0px" y="0px"
	 viewBox="0 0 750 758.19" style="enable-background:new 0 0 750 758.19;" xml:space="preserve">
<style type="text/css">
	.st0{display:none;}
	.st1{display:inline;}
	.st2{display:inline;fill:#FFFFFF;}
	.st3{clip-path:url(#SVGID_2_);fill:#FF0000;}
	.st4{clip-path:url(#SVGID_2_);fill:#FFFFFF;}
	.st5{clip-path:url(#SVGID_2_);fill:#000008;}
	.st6{clip-path:url(#SVGID_2_);fill:#237AA8;}
	.st7{clip-path:url(#SVGID_2_);fill:#E6F1F7;}
	.st8{clip-path:url(#SVGID_4_);fill:#237AA8;}
	.st9{clip-path:url(#SVGID_4_);fill:#FFFFFF;}
	.st10{clip-path:url(#SVGID_4_);fill:#000008;}
	.st11{clip-path:url(#SVGID_4_);fill:#FF0000;}
	.st12{clip-path:url(#SVGID_4_);fill:#E6F1F7;}
	.st13{clip-path:url(#SVGID_6_);}
	.st14{clip-path:url(#SVGID_6_);fill:#FFFFFF;stroke:#FFFFFF;stroke-width:2;stroke-miterlimit:10;}
	.st15{clip-path:url(#SVGID_6_);fill:#FFFFFF;}
	.st16{clip-path:url(#SVGID_6_);stroke:#FFFFFF;stroke-width:5;stroke-miterlimit:10;}
	.st17{clip-path:url(#SVGID_8_);}
	.st18{clip-path:url(#SVGID_8_);fill:#FFFFFF;}
	.st19{display:none;clip-path:url(#SVGID_8_);fill:#FFFFFF;}
	.st20{clip-path:url(#SVGID_10_);fill:#FFFFFF;}
	.st21{clip-path:url(#SVGID_10_);stroke:#000000;stroke-width:2;stroke-miterlimit:10;}
	.st22{clip-path:url(#SVGID_10_);fill:#000008;}
	.st23{clip-path:url(#SVGID_10_);fill:#FFFFFF;stroke:#000000;stroke-width:5;stroke-miterlimit:10;}
	.st24{clip-path:url(#SVGID_12_);fill:#FFFFFF;}
	.st25{display:none;clip-path:url(#SVGID_12_);fill:#FFFFFF;}
	.st26{display:none;clip-path:url(#SVGID_12_);fill:#000008;}
</style>
<g id="Layer_2" class="st0">
	<rect x="750" class="st1" width="892.5" height="791.15"/>
	<rect class="st2" width="750" height="1552.3"/>
	<rect x="-892.5" class="st2" width="892.5" height="791.15"/>
	<rect x="-892.5" y="758.19" class="st2" width="892.5" height="794.11"/>
	<rect x="750" y="758.19" class="st1" width="892.5" height="794.11"/>
</g>
<g id="RED">
	<g>
		<defs>
			<rect id="SVGID_1_" width="750" height="758.19"/>
		</defs>
		<clipPath id="SVGID_2_">
			<use xlink:href="#SVGID_1_"  style="overflow:visible;"/>
		</clipPath>
		<path class="st3" d="M169.15,390.36H61.7c-24.32,0-44.11-22.36-44.11-49.85V216.1c0-34.4,24.77-62.39,55.21-62.39h97.3
			c12.26,0,23.86-6.7,31.04-17.93l43.85-68.61c11.59-18.14,30.33-28.96,50.13-28.96h163.86c23.4,0,44.76,14.51,55.74,37.86
			l23.64,50.28c4.17,8.87,12.27,14.37,21.15,14.37h0.13l106.12-0.62h0.29c15.01,0,29.1,6.62,39.69,18.67
			c10.66,12.13,16.42,28.22,16.24,45.31l-0.92,85.89c-0.14,12.98-9.49,23.38-20.94,23.38c-0.09,0-0.17,0-0.26,0
			c-11.57-0.16-20.83-10.88-20.69-23.95l0.92-85.89c0.05-4.29-1.4-8.33-4.08-11.38c-2.67-3.05-6.35-4.64-10.04-4.69l-106.12,0.62
			h-0.34c-24.42,0-46.67-15.1-58.14-39.49l-23.64-50.29c-3.69-7.85-10.87-12.73-18.74-12.73H295.12c-6.39,0-12.43,3.49-16.17,9.34
			L235.1,163.5c-15.03,23.52-39.33,37.55-65,37.55H72.8c-7.34,0-13.32,6.75-13.32,15.05v124.42c0,1.38,1,2.51,2.22,2.51h107.45
			c11.57,0,20.95,10.6,20.95,23.67C190.1,379.77,180.72,390.36,169.15,390.36"/>
		<path class="st4" d="M169.15,391.4H61.7c-24.89,0-45.14-22.82-45.14-50.88V216.1c0-34.97,25.23-63.42,56.24-63.42h97.3
			c11.9,0,23.18-6.53,30.17-17.46l43.85-68.61c11.78-18.43,30.85-29.44,51-29.44h163.86c23.81,0,45.53,14.74,56.68,38.46
			l23.64,50.28c4,8.5,11.74,13.78,20.22,13.78h0.13l106.42-0.62c15.31,0,29.68,6.76,40.46,19.02c10.82,12.32,16.68,28.65,16.5,46
			l-0.92,85.89c-0.15,13.46-10,24.4-21.97,24.4l-0.29,0c-12.1-0.17-21.84-11.38-21.69-25l0.92-85.89c0.05-4.04-1.31-7.83-3.82-10.68
			c-2.38-2.71-5.76-4.29-9.28-4.34l-106.46,0.62c-24.81,0-47.45-15.36-59.08-40.09l-23.64-50.29c-3.52-7.49-10.34-12.14-17.81-12.14
			H295.12c-6.03,0-11.75,3.31-15.3,8.86l-43.85,68.61c-15.22,23.81-39.84,38.03-65.87,38.03H72.8c-6.78,0-12.29,6.29-12.29,14.02
			v124.42c0,0.8,0.54,1.47,1.19,1.47h107.45c12.12,0,21.98,11.08,21.98,24.7C191.13,380.32,181.27,391.4,169.15,391.4 M72.8,154.75
			c-29.87,0-54.18,27.52-54.18,61.36v124.42c0,26.92,19.33,48.81,43.08,48.81h107.45c10.98,0,19.91-10.16,19.91-22.64
			c0-12.48-8.93-22.64-19.91-22.64H61.7c-1.79,0-3.25-1.59-3.25-3.54V216.1c0-8.87,6.44-16.08,14.35-16.08h97.3
			c25.32,0,49.29-13.86,64.13-37.08l43.85-68.61c3.93-6.15,10.3-9.82,17.04-9.82h163.86c8.28,0,15.82,5.11,19.68,13.33l23.64,50.29
			c11.28,24,33.21,38.9,57.21,38.9h0.34l106.12-0.62c4.12,0.05,8.06,1.89,10.82,5.04c2.84,3.24,4.38,7.52,4.33,12.07l-0.92,85.89
			c-0.13,12.48,8.69,22.76,19.67,22.91l0.24,0c10.85,0,19.78-10.03,19.91-22.36l0.92-85.89c0.18-16.84-5.5-32.68-15.98-44.61
			c-10.38-11.81-24.2-18.32-38.91-18.32h-0.29l-106.25,0.62c-9.28,0-17.75-5.73-22.09-14.96l-23.64-50.29
			c-10.81-22.99-31.81-37.27-54.81-37.27H295.12c-19.45,0-37.86,10.65-49.26,28.49l-43.85,68.61
			c-7.37,11.53-19.29,18.41-31.91,18.41H72.8z"/>
		<path class="st3" d="M663.21,722.05H90.6c-36.99,0-67.09-34.01-67.09-75.81V444.72c0-13.07,9.38-23.67,20.95-23.67
			c11.57,0,20.95,10.6,20.95,23.67v201.52c0,15.7,11.3,28.47,25.2,28.47h572.6c11.24,0,20.39-10.33,20.39-23.04v-250.6
			c0-12.06-8.68-21.87-19.35-21.87H571.3c-11.57,0-20.95-10.6-20.95-23.67c0-13.07,9.38-23.67,20.95-23.67h92.95
			c33.77,0,61.25,31.05,61.25,69.21v250.6C725.49,690.48,697.55,722.05,663.21,722.05"/>
		<path class="st4" d="M663.21,723.08H90.6c-37.56,0-68.12-34.47-68.12-76.84V444.72c0-13.62,9.86-24.7,21.98-24.7
			s21.98,11.08,21.98,24.7v201.52c0,15.13,10.84,27.44,24.17,27.44h572.61c10.67,0,19.36-9.87,19.36-22v-250.6
			c0-11.49-8.22-20.84-18.32-20.84H571.3c-12.12,0-21.98-11.08-21.98-24.7c0-13.62,9.86-24.7,21.98-24.7h92.95
			c34.34,0,62.28,31.51,62.28,70.24v250.6C726.52,691.05,698.12,723.08,663.21,723.08 M44.46,422.08
			c-10.98,0-19.91,10.16-19.91,22.64v201.52c0,41.23,29.63,74.78,66.06,74.78h572.61c33.77,0,61.25-31.11,61.25-69.34v-250.6
			c0-37.59-27.01-68.18-60.21-68.18H571.3c-10.98,0-19.91,10.15-19.91,22.64c0,12.48,8.93,22.64,19.91,22.64h92.95
			c11.24,0,20.39,10.27,20.39,22.9v250.6c0,13.27-9.61,24.07-21.42,24.07H90.6c-14.46,0-26.23-13.23-26.23-29.5V444.72
			C64.37,432.24,55.44,422.08,44.46,422.08"/>
		<path class="st5" d="M351.8,607.84L246.95,444.13c-18.07-28.21-27.47-61.66-25.77-95.52c2.84-56.44,26.57-131.45,129.5-145.68
			c14.54-2.01,29.33-1.78,43.8,0.79c36.38,6.47,98.86,29.29,115.6,109.51c9.68,46.41-0.31,94.93-25.61,134.45L381.89,607.84
			C374.73,619.02,358.95,619.02,351.8,607.84"/>
		<path class="st6" d="M366.84,631.92c-11.44,0-22.01-5.84-28.27-15.62L233.72,452.6c-20.03-31.27-30.05-68.49-28.23-104.78
			c4.59-91.35,55.39-148.33,143.03-160.44c16.32-2.26,32.7-1.96,48.7,0.88c39.88,7.09,109.56,32.33,128.22,121.76
			c10.28,49.27,0.16,102.52-27.77,146.12L395.11,616.31C388.85,626.09,378.28,631.92,366.84,631.92 M370.17,217.29
			c-5.77,0-11.55,0.4-17.34,1.2c-73.09,10.1-112.11,54.15-115.97,130.91c-1.5,29.82,6.78,60.45,23.31,86.26l106.67,166.55l104.4-163
			c23.53-36.73,32.08-81.48,23.46-122.77c-14.14-67.77-63.8-90.29-102.97-97.26C384.63,217.92,377.42,217.29,370.17,217.29"/>
		<path class="st7" d="M288.66,300.04c0,0,32.67-52.35,105.55-39.37c0,0,30.58,7.12,48.17,33.09c0,0,5.86,12.15-6.28,18.01
			c0,0-6.28,7.54-20.52-0.42c0,0-32.25-33.51-78.74-9.21c0,0-37.28,22.2-28.06,65.34c0,0,1.26,47.75,57.8,51.1
			c0,0,24.29,2.09,43.56-14.66c0,0,17.33-16.33,30.23-1.26c0,0,12.91,11.73-7.62,28.48c0,0-19.27,21.78-64.5,25.97
			c0,0-63.61,2.01-88.35-62.24C279.89,394.87,257.24,351.56,288.66,300.04"/>
	</g>
</g>
<g id="BLUE" class="st0">
	<g class="st1">
		<defs>
			<rect id="SVGID_3_" width="750" height="758.19"/>
		</defs>
		<clipPath id="SVGID_4_">
			<use xlink:href="#SVGID_3_"  style="overflow:visible;"/>
		</clipPath>
		<path class="st8" d="M169.15,390.36H61.7c-24.32,0-44.11-22.36-44.11-49.85V216.1c0-34.4,24.77-62.39,55.21-62.39h97.3
			c12.26,0,23.86-6.7,31.04-17.93l43.85-68.61c11.59-18.14,30.33-28.96,50.13-28.96h163.86c23.4,0,44.76,14.51,55.74,37.86
			l23.64,50.28c4.17,8.87,12.27,14.37,21.15,14.37h0.13l106.12-0.62h0.29c15.01,0,29.1,6.62,39.69,18.67
			c10.66,12.13,16.42,28.22,16.24,45.31l-0.92,85.89c-0.14,12.98-9.49,23.38-20.94,23.38c-0.09,0-0.17,0-0.26,0
			c-11.57-0.16-20.83-10.88-20.69-23.95l0.92-85.89c0.05-4.29-1.4-8.33-4.08-11.38c-2.67-3.05-6.35-4.64-10.04-4.69l-106.12,0.62
			h-0.34c-24.42,0-46.67-15.1-58.14-39.49l-23.64-50.29c-3.69-7.85-10.87-12.73-18.74-12.73H295.12c-6.39,0-12.43,3.49-16.17,9.34
			L235.1,163.5c-15.03,23.52-39.33,37.55-65,37.55H72.8c-7.34,0-13.32,6.75-13.32,15.05v124.42c0,1.38,1,2.51,2.22,2.51h107.45
			c11.57,0,20.95,10.6,20.95,23.67C190.1,379.77,180.72,390.36,169.15,390.36"/>
		<path class="st9" d="M169.15,391.4H61.7c-24.89,0-45.14-22.82-45.14-50.88V216.1c0-34.97,25.23-63.42,56.24-63.42h97.3
			c11.9,0,23.18-6.53,30.17-17.46l43.85-68.61c11.78-18.43,30.85-29.44,51-29.44h163.86c23.81,0,45.53,14.74,56.68,38.46
			l23.64,50.28c4,8.5,11.74,13.78,20.22,13.78h0.13l106.42-0.62c15.31,0,29.68,6.76,40.46,19.02c10.82,12.32,16.68,28.65,16.5,46
			l-0.92,85.89c-0.15,13.46-10,24.4-21.97,24.4l-0.29,0c-12.1-0.17-21.84-11.38-21.69-25l0.92-85.89c0.05-4.04-1.31-7.83-3.82-10.68
			c-2.38-2.71-5.76-4.29-9.28-4.34l-106.46,0.62c-24.81,0-47.45-15.36-59.08-40.09l-23.64-50.29c-3.52-7.49-10.34-12.14-17.81-12.14
			H295.12c-6.03,0-11.75,3.31-15.3,8.86l-43.85,68.61c-15.22,23.81-39.84,38.03-65.87,38.03H72.8c-6.78,0-12.29,6.29-12.29,14.02
			v124.42c0,0.8,0.54,1.47,1.19,1.47h107.45c12.12,0,21.98,11.08,21.98,24.7C191.13,380.32,181.27,391.4,169.15,391.4 M72.8,154.75
			c-29.87,0-54.18,27.52-54.18,61.36v124.42c0,26.92,19.33,48.81,43.08,48.81h107.45c10.98,0,19.91-10.16,19.91-22.64
			c0-12.48-8.93-22.64-19.91-22.64H61.7c-1.79,0-3.25-1.59-3.25-3.54V216.1c0-8.87,6.44-16.08,14.35-16.08h97.3
			c25.32,0,49.29-13.86,64.13-37.08l43.85-68.61c3.93-6.15,10.3-9.82,17.04-9.82h163.86c8.28,0,15.82,5.11,19.68,13.33l23.64,50.29
			c11.28,24,33.21,38.9,57.21,38.9h0.34l106.12-0.62c4.12,0.05,8.06,1.89,10.82,5.04c2.84,3.24,4.38,7.52,4.33,12.07l-0.92,85.89
			c-0.13,12.48,8.69,22.76,19.67,22.91l0.24,0c10.85,0,19.78-10.03,19.91-22.36l0.92-85.89c0.18-16.84-5.5-32.68-15.98-44.61
			c-10.38-11.81-24.2-18.32-38.91-18.32h-0.29l-106.25,0.62c-9.28,0-17.75-5.73-22.09-14.96l-23.64-50.29
			c-10.81-22.99-31.81-37.27-54.81-37.27H295.12c-19.45,0-37.86,10.65-49.26,28.49l-43.85,68.61
			c-7.37,11.53-19.29,18.41-31.91,18.41H72.8z"/>
		<path class="st8" d="M663.21,722.05H90.6c-36.99,0-67.09-34.01-67.09-75.81V444.72c0-13.07,9.38-23.67,20.95-23.67
			c11.57,0,20.95,10.6,20.95,23.67v201.52c0,15.7,11.3,28.47,25.2,28.47h572.6c11.24,0,20.39-10.33,20.39-23.04v-250.6
			c0-12.06-8.68-21.87-19.35-21.87H571.3c-11.57,0-20.95-10.6-20.95-23.67c0-13.07,9.38-23.67,20.95-23.67h92.95
			c33.77,0,61.25,31.05,61.25,69.21v250.6C725.49,690.48,697.55,722.05,663.21,722.05"/>
		<path class="st9" d="M663.21,723.08H90.6c-37.56,0-68.12-34.47-68.12-76.84V444.72c0-13.62,9.86-24.7,21.98-24.7
			s21.98,11.08,21.98,24.7v201.52c0,15.13,10.84,27.44,24.17,27.44h572.61c10.67,0,19.36-9.87,19.36-22v-250.6
			c0-11.49-8.22-20.84-18.32-20.84H571.3c-12.12,0-21.98-11.08-21.98-24.7c0-13.62,9.86-24.7,21.98-24.7h92.95
			c34.34,0,62.28,31.51,62.28,70.24v250.6C726.52,691.05,698.12,723.08,663.21,723.08 M44.46,422.08
			c-10.98,0-19.91,10.16-19.91,22.64v201.52c0,41.23,29.63,74.78,66.06,74.78h572.61c33.77,0,61.25-31.11,61.25-69.34v-250.6
			c0-37.59-27.01-68.18-60.21-68.18H571.3c-10.98,0-19.91,10.15-19.91,22.64c0,12.48,8.93,22.64,19.91,22.64h92.95
			c11.24,0,20.39,10.27,20.39,22.9v250.6c0,13.27-9.61,24.07-21.42,24.07H90.6c-14.46,0-26.23-13.23-26.23-29.5V444.72
			C64.37,432.24,55.44,422.08,44.46,422.08"/>
		<path class="st10" d="M351.8,607.84L246.95,444.13c-18.07-28.21-27.47-61.66-25.77-95.52c2.84-56.44,26.57-131.45,129.5-145.68
			c14.54-2.01,29.33-1.78,43.8,0.79c36.38,6.47,98.86,29.29,115.6,109.51c9.68,46.41-0.31,94.93-25.61,134.45L381.89,607.84
			C374.73,619.02,358.95,619.02,351.8,607.84"/>
		<path class="st11" d="M366.84,631.92c-11.44,0-22.01-5.84-28.27-15.62L233.72,452.6c-20.03-31.27-30.05-68.49-28.23-104.78
			c4.59-91.35,55.39-148.33,143.03-160.44c16.32-2.26,32.7-1.96,48.7,0.88c39.88,7.09,109.56,32.33,128.22,121.76
			c10.28,49.27,0.16,102.52-27.77,146.12L395.11,616.31C388.85,626.09,378.28,631.92,366.84,631.92 M370.17,217.29
			c-5.77,0-11.55,0.4-17.34,1.2c-73.09,10.1-112.11,54.15-115.97,130.91c-1.5,29.82,6.78,60.45,23.31,86.26l106.67,166.55l104.4-163
			c23.53-36.73,32.08-81.48,23.46-122.77c-14.14-67.77-63.8-90.29-102.97-97.26C384.63,217.92,377.42,217.29,370.17,217.29"/>
		<path class="st12" d="M288.66,300.04c0,0,32.67-52.35,105.55-39.37c0,0,30.58,7.12,48.17,33.09c0,0,5.86,12.15-6.28,18.01
			c0,0-6.28,7.54-20.52-0.42c0,0-32.25-33.51-78.74-9.21c0,0-37.28,22.2-28.06,65.34c0,0,1.26,47.75,57.8,51.1
			c0,0,24.29,2.09,43.56-14.66c0,0,17.33-16.33,30.23-1.26c0,0,12.91,11.73-7.62,28.48c0,0-19.27,21.78-64.5,25.97
			c0,0-63.61,2.01-88.35-62.24C279.89,394.87,257.24,351.56,288.66,300.04"/>
	</g>
</g>
<g id="K_x2F_K" class="st0">
	<g class="st1">
		<defs>
			<rect id="SVGID_5_" width="750" height="758.19"/>
		</defs>
		<clipPath id="SVGID_6_">
			<use xlink:href="#SVGID_5_"  style="overflow:visible;"/>
		</clipPath>
		<path class="st13" d="M169.15,390.36H61.7c-24.32,0-44.11-22.36-44.11-49.85V216.1c0-34.4,24.77-62.39,55.21-62.39h97.3
			c12.26,0,23.86-6.7,31.04-17.93l43.85-68.61c11.59-18.14,30.33-28.96,50.13-28.96h163.86c23.4,0,44.76,14.51,55.74,37.86
			l23.64,50.28c4.17,8.87,12.27,14.37,21.15,14.37h0.13l106.12-0.62h0.29c15.01,0,29.1,6.62,39.69,18.67
			c10.66,12.13,16.42,28.22,16.24,45.31l-0.92,85.89c-0.14,12.98-9.49,23.38-20.94,23.38c-0.09,0-0.17,0-0.26,0
			c-11.57-0.16-20.83-10.88-20.69-23.95l0.92-85.89c0.05-4.29-1.4-8.33-4.08-11.38c-2.67-3.05-6.35-4.64-10.04-4.69l-106.12,0.62
			h-0.34c-24.42,0-46.67-15.1-58.14-39.49l-23.64-50.29c-3.69-7.85-10.87-12.73-18.74-12.73H295.12c-6.39,0-12.43,3.49-16.17,9.34
			L235.1,163.5c-15.03,23.52-39.33,37.55-65,37.55H72.8c-7.34,0-13.32,6.75-13.32,15.05v124.42c0,1.38,1,2.51,2.22,2.51h107.45
			c11.57,0,20.95,10.6,20.95,23.67C190.1,379.77,180.72,390.36,169.15,390.36"/>
		<path class="st14" d="M169.15,391.4H61.7c-24.89,0-45.14-22.82-45.14-50.88V216.1c0-34.97,25.23-63.42,56.24-63.42h97.3
			c11.9,0,23.18-6.53,30.17-17.46l43.85-68.61c11.78-18.43,30.85-29.44,51-29.44h163.86c23.81,0,45.53,14.74,56.68,38.46
			l23.64,50.28c4,8.5,11.74,13.78,20.22,13.78h0.13l106.42-0.62c15.31,0,29.68,6.76,40.46,19.02c10.82,12.32,16.68,28.65,16.5,46
			l-0.92,85.89c-0.15,13.46-10,24.4-21.97,24.4l-0.29,0c-12.1-0.17-21.84-11.38-21.69-25l0.92-85.89c0.05-4.04-1.31-7.83-3.82-10.68
			c-2.38-2.71-5.76-4.29-9.28-4.34l-106.46,0.62c-24.81,0-47.45-15.36-59.08-40.09l-23.64-50.29c-3.52-7.49-10.34-12.14-17.81-12.14
			H295.12c-6.03,0-11.75,3.31-15.3,8.86l-43.85,68.61c-15.22,23.81-39.84,38.03-65.87,38.03H72.8c-6.78,0-12.29,6.29-12.29,14.02
			v124.42c0,0.8,0.54,1.47,1.19,1.47h107.45c12.12,0,21.98,11.08,21.98,24.7C191.13,380.32,181.27,391.4,169.15,391.4 M72.8,154.75
			c-29.87,0-54.18,27.52-54.18,61.36v124.42c0,26.92,19.33,48.81,43.08,48.81h107.45c10.98,0,19.91-10.16,19.91-22.64
			c0-12.48-8.93-22.64-19.91-22.64H61.7c-1.79,0-3.25-1.59-3.25-3.54V216.1c0-8.87,6.44-16.08,14.35-16.08h97.3
			c25.32,0,49.29-13.86,64.13-37.08l43.85-68.61c3.93-6.15,10.3-9.82,17.04-9.82h163.86c8.28,0,15.82,5.11,19.68,13.33l23.64,50.29
			c11.28,24,33.21,38.9,57.21,38.9h0.34l106.12-0.62c4.12,0.05,8.06,1.89,10.82,5.04c2.84,3.24,4.38,7.52,4.33,12.07l-0.92,85.89
			c-0.13,12.48,8.69,22.76,19.67,22.91l0.24,0c10.85,0,19.78-10.03,19.91-22.36l0.92-85.89c0.18-16.84-5.5-32.68-15.98-44.61
			c-10.38-11.81-24.2-18.32-38.91-18.32h-0.29l-106.25,0.62c-9.28,0-17.75-5.73-22.09-14.96l-23.64-50.29
			c-10.81-22.99-31.81-37.27-54.81-37.27H295.12c-19.45,0-37.86,10.65-49.26,28.49l-43.85,68.61
			c-7.37,11.53-19.29,18.41-31.91,18.41H72.8z"/>
		<path class="st13" d="M663.21,722.05H90.6c-36.99,0-67.09-34.01-67.09-75.81V444.72c0-13.07,9.38-23.67,20.95-23.67
			c11.57,0,20.95,10.6,20.95,23.67v201.52c0,15.7,11.3,28.47,25.2,28.47h572.6c11.24,0,20.39-10.33,20.39-23.04v-250.6
			c0-12.06-8.68-21.87-19.35-21.87H571.3c-11.57,0-20.95-10.6-20.95-23.67c0-13.07,9.38-23.67,20.95-23.67h92.95
			c33.77,0,61.25,31.05,61.25,69.21v250.6C725.49,690.48,697.55,722.05,663.21,722.05"/>
		<path class="st14" d="M663.21,723.08H90.6c-37.56,0-68.12-34.47-68.12-76.84V444.72c0-13.62,9.86-24.7,21.98-24.7
			s21.98,11.08,21.98,24.7v201.52c0,15.13,10.84,27.44,24.17,27.44h572.61c10.67,0,19.36-9.87,19.36-22v-250.6
			c0-11.49-8.22-20.84-18.32-20.84H571.3c-12.12,0-21.98-11.08-21.98-24.7c0-13.62,9.86-24.7,21.98-24.7h92.95
			c34.34,0,62.28,31.51,62.28,70.24v250.6C726.52,691.05,698.12,723.08,663.21,723.08 M44.46,422.08
			c-10.98,0-19.91,10.16-19.91,22.64v201.52c0,41.23,29.63,74.78,66.06,74.78h572.61c33.77,0,61.25-31.11,61.25-69.34v-250.6
			c0-37.59-27.01-68.18-60.21-68.18H571.3c-10.98,0-19.91,10.15-19.91,22.64c0,12.48,8.93,22.64,19.91,22.64h92.95
			c11.24,0,20.39,10.27,20.39,22.9v250.6c0,13.27-9.61,24.07-21.42,24.07H90.6c-14.46,0-26.23-13.23-26.23-29.5V444.72
			C64.37,432.24,55.44,422.08,44.46,422.08"/>
		<path class="st15" d="M351.8,607.84L246.95,444.13c-18.07-28.21-27.47-61.66-25.77-95.52c2.84-56.44,26.57-131.45,129.5-145.68
			c14.54-2.01,29.33-1.78,43.8,0.79c36.38,6.47,98.86,29.29,115.6,109.51c9.68,46.41-0.31,94.93-25.61,134.45L381.89,607.84
			C374.73,619.02,358.95,619.02,351.8,607.84"/>
		<path class="st16" d="M366.84,631.92c-11.44,0-22.01-5.84-28.27-15.62L233.72,452.6c-20.03-31.27-30.05-68.49-28.23-104.78
			c4.59-91.35,55.39-148.33,143.03-160.44c16.32-2.26,32.7-1.96,48.7,0.88c39.88,7.09,109.56,32.33,128.22,121.76
			c10.28,49.27,0.16,102.52-27.77,146.12L395.11,616.31C388.85,626.09,378.28,631.92,366.84,631.92 M370.17,217.29
			c-5.77,0-11.55,0.4-17.34,1.2c-73.09,10.1-112.11,54.15-115.97,130.91c-1.5,29.82,6.78,60.45,23.31,86.26l106.67,166.55l104.4-163
			c23.53-36.73,32.08-81.48,23.46-122.77c-14.14-67.77-63.8-90.29-102.97-97.26C384.63,217.92,377.42,217.29,370.17,217.29"/>
		<path class="st13" d="M288.66,300.04c0,0,32.67-52.35,105.55-39.37c0,0,30.58,7.12,48.17,33.09c0,0,5.86,12.15-6.28,18.01
			c0,0-6.28,7.54-20.52-0.42c0,0-32.25-33.51-78.74-9.21c0,0-37.28,22.2-28.06,65.34c0,0,1.26,47.75,57.8,51.1
			c0,0,24.29,2.09,43.56-14.66c0,0,17.33-16.33,30.23-1.26c0,0,12.91,11.73-7.62,28.48c0,0-19.27,21.78-64.5,25.97
			c0,0-63.61,2.01-88.35-62.24C279.89,394.87,257.24,351.56,288.66,300.04"/>
	</g>
</g>
<g id="K_x2F_W" class="st0">
	<g class="st1">
		<defs>
			<rect id="SVGID_7_" width="750" height="758.19"/>
		</defs>
		<clipPath id="SVGID_8_">
			<use xlink:href="#SVGID_7_"  style="overflow:visible;"/>
		</clipPath>
		<path class="st17" d="M169.15,390.36H61.7c-24.32,0-44.11-22.36-44.11-49.85V216.1c0-34.4,24.77-62.39,55.21-62.39h97.3
			c12.26,0,23.86-6.7,31.04-17.93l43.85-68.61c11.59-18.14,30.33-28.96,50.13-28.96h163.86c23.4,0,44.76,14.51,55.74,37.86
			l23.64,50.28c4.17,8.87,12.27,14.37,21.15,14.37h0.13l106.12-0.62h0.29c15.01,0,29.1,6.62,39.69,18.67
			c10.66,12.13,16.42,28.22,16.24,45.31l-0.92,85.89c-0.14,12.98-9.49,23.38-20.94,23.38c-0.09,0-0.17,0-0.26,0
			c-11.57-0.16-20.83-10.88-20.69-23.95l0.92-85.89c0.05-4.29-1.4-8.33-4.08-11.38c-2.67-3.05-6.35-4.64-10.04-4.69l-106.12,0.62
			h-0.34c-24.42,0-46.67-15.1-58.14-39.49l-23.64-50.29c-3.69-7.85-10.87-12.73-18.74-12.73H295.12c-6.39,0-12.43,3.49-16.17,9.34
			L235.1,163.5c-15.03,23.52-39.33,37.55-65,37.55H72.8c-7.34,0-13.32,6.75-13.32,15.05v124.42c0,1.38,1,2.51,2.22,2.51h107.45
			c11.57,0,20.95,10.6,20.95,23.67C190.1,379.77,180.72,390.36,169.15,390.36"/>
		<path class="st18" d="M169.15,391.4H61.7c-24.89,0-45.14-22.82-45.14-50.88V216.1c0-34.97,25.23-63.42,56.24-63.42h97.3
			c11.9,0,23.18-6.53,30.17-17.46l43.85-68.61c11.78-18.43,30.85-29.44,51-29.44h163.86c23.81,0,45.53,14.74,56.68,38.46
			l23.64,50.28c4,8.5,11.74,13.78,20.22,13.78h0.13l106.42-0.62c15.31,0,29.68,6.76,40.46,19.02c10.82,12.32,16.68,28.65,16.5,46
			l-0.92,85.89c-0.15,13.46-10,24.4-21.97,24.4l-0.29,0c-12.1-0.17-21.84-11.38-21.69-25l0.92-85.89c0.05-4.04-1.31-7.83-3.82-10.68
			c-2.38-2.71-5.76-4.29-9.28-4.34l-106.46,0.62c-24.81,0-47.45-15.36-59.08-40.09l-23.64-50.29c-3.52-7.49-10.34-12.14-17.81-12.14
			H295.12c-6.03,0-11.75,3.31-15.3,8.86l-43.85,68.61c-15.22,23.81-39.84,38.03-65.87,38.03H72.8c-6.78,0-12.29,6.29-12.29,14.02
			v124.42c0,0.8,0.54,1.47,1.19,1.47h107.45c12.12,0,21.98,11.08,21.98,24.7C191.13,380.32,181.27,391.4,169.15,391.4 M72.8,154.75
			c-29.87,0-54.18,27.52-54.18,61.36v124.42c0,26.92,19.33,48.81,43.08,48.81h107.45c10.98,0,19.91-10.16,19.91-22.64
			c0-12.48-8.93-22.64-19.91-22.64H61.7c-1.79,0-3.25-1.59-3.25-3.54V216.1c0-8.87,6.44-16.08,14.35-16.08h97.3
			c25.32,0,49.29-13.86,64.13-37.08l43.85-68.61c3.93-6.15,10.3-9.82,17.04-9.82h163.86c8.28,0,15.82,5.11,19.68,13.33l23.64,50.29
			c11.28,24,33.21,38.9,57.21,38.9h0.34l106.12-0.62c4.12,0.05,8.06,1.89,10.82,5.04c2.84,3.24,4.38,7.52,4.33,12.07l-0.92,85.89
			c-0.13,12.48,8.69,22.76,19.67,22.91l0.24,0c10.85,0,19.78-10.03,19.91-22.36l0.92-85.89c0.18-16.84-5.5-32.68-15.98-44.61
			c-10.38-11.81-24.2-18.32-38.91-18.32h-0.29l-106.25,0.62c-9.28,0-17.75-5.73-22.09-14.96l-23.64-50.29
			c-10.81-22.99-31.81-37.27-54.81-37.27H295.12c-19.45,0-37.86,10.65-49.26,28.49l-43.85,68.61
			c-7.37,11.53-19.29,18.41-31.91,18.41H72.8z"/>
		<path class="st17" d="M663.21,722.05H90.6c-36.99,0-67.09-34.01-67.09-75.81V444.72c0-13.07,9.38-23.67,20.95-23.67
			c11.57,0,20.95,10.6,20.95,23.67v201.52c0,15.7,11.3,28.47,25.2,28.47h572.6c11.24,0,20.39-10.33,20.39-23.04v-250.6
			c0-12.06-8.68-21.87-19.35-21.87H571.3c-11.57,0-20.95-10.6-20.95-23.67c0-13.07,9.38-23.67,20.95-23.67h92.95
			c33.77,0,61.25,31.05,61.25,69.21v250.6C725.49,690.48,697.55,722.05,663.21,722.05"/>
		<path class="st18" d="M663.21,723.08H90.6c-37.56,0-68.12-34.47-68.12-76.84V444.72c0-13.62,9.86-24.7,21.98-24.7
			s21.98,11.08,21.98,24.7v201.52c0,15.13,10.84,27.44,24.17,27.44h572.61c10.67,0,19.36-9.87,19.36-22v-250.6
			c0-11.49-8.22-20.84-18.32-20.84H571.3c-12.12,0-21.98-11.08-21.98-24.7c0-13.62,9.86-24.7,21.98-24.7h92.95
			c34.34,0,62.28,31.51,62.28,70.24v250.6C726.52,691.05,698.12,723.08,663.21,723.08 M44.46,422.08
			c-10.98,0-19.91,10.16-19.91,22.64v201.52c0,41.23,29.63,74.78,66.06,74.78h572.61c33.77,0,61.25-31.11,61.25-69.34v-250.6
			c0-37.59-27.01-68.18-60.21-68.18H571.3c-10.98,0-19.91,10.15-19.91,22.64c0,12.48,8.93,22.64,19.91,22.64h92.95
			c11.24,0,20.39,10.27,20.39,22.9v250.6c0,13.27-9.61,24.07-21.42,24.07H90.6c-14.46,0-26.23-13.23-26.23-29.5V444.72
			C64.37,432.24,55.44,422.08,44.46,422.08"/>
		<path class="st19" d="M351.8,607.84L246.95,444.13c-18.07-28.21-27.47-61.66-25.77-95.52c2.84-56.44,26.57-131.45,129.5-145.68
			c14.54-2.01,29.33-1.78,43.8,0.79c36.38,6.47,98.86,29.29,115.6,109.51c9.68,46.41-0.31,94.93-25.61,134.45L381.89,607.84
			C374.73,619.02,358.95,619.02,351.8,607.84"/>
		<path class="st17" d="M366.84,631.92c-11.44,0-22.01-5.84-28.27-15.62L233.72,452.6c-20.03-31.27-30.05-68.49-28.23-104.78
			c4.59-91.35,55.39-148.33,143.03-160.44c16.32-2.26,32.7-1.96,48.7,0.88c39.88,7.09,109.56,32.33,128.22,121.76
			c10.28,49.27,0.16,102.52-27.77,146.12L395.11,616.31C388.85,626.09,378.28,631.92,366.84,631.92 M370.17,217.29
			c-5.77,0-11.55,0.4-17.34,1.2c-73.09,10.1-112.11,54.15-115.97,130.91c-1.5,29.82,6.78,60.45,23.31,86.26l106.67,166.55l104.4-163
			c23.53-36.73,32.08-81.48,23.46-122.77c-14.14-67.77-63.8-90.29-102.97-97.26C384.63,217.92,377.42,217.29,370.17,217.29"/>
		<path class="st17" d="M288.66,300.04c0,0,32.67-52.35,105.55-39.37c0,0,30.58,7.12,48.17,33.09c0,0,5.86,12.15-6.28,18.01
			c0,0-6.28,7.54-20.52-0.42c0,0-32.25-33.51-78.74-9.21c0,0-37.28,22.2-28.06,65.34c0,0,1.26,47.75,57.8,51.1
			c0,0,24.29,2.09,43.56-14.66c0,0,17.33-16.33,30.23-1.26c0,0,12.91,11.73-7.62,28.48c0,0-19.27,21.78-64.5,25.97
			c0,0-63.61,2.01-88.35-62.24C279.89,394.87,257.24,351.56,288.66,300.04"/>
	</g>
</g>
<g id="W_x2F_W" class="st0">
	<g class="st1">
		<defs>
			<rect id="SVGID_9_" width="750" height="758.19"/>
		</defs>
		<clipPath id="SVGID_10_">
			<use xlink:href="#SVGID_9_"  style="overflow:visible;"/>
		</clipPath>
		<path class="st20" d="M169.15,390.36H61.7c-24.32,0-44.11-22.36-44.11-49.85V216.1c0-34.4,24.77-62.39,55.21-62.39h97.3
			c12.26,0,23.86-6.7,31.04-17.93l43.85-68.61c11.59-18.14,30.33-28.96,50.13-28.96h163.86c23.4,0,44.76,14.51,55.74,37.86
			l23.64,50.28c4.17,8.87,12.27,14.37,21.15,14.37h0.13l106.12-0.62h0.29c15.01,0,29.1,6.62,39.69,18.67
			c10.66,12.13,16.42,28.22,16.24,45.31l-0.92,85.89c-0.14,12.98-9.49,23.38-20.94,23.38c-0.09,0-0.17,0-0.26,0
			c-11.57-0.16-20.83-10.88-20.69-23.95l0.92-85.89c0.05-4.29-1.4-8.33-4.08-11.38c-2.67-3.05-6.35-4.64-10.04-4.69l-106.12,0.62
			h-0.34c-24.42,0-46.67-15.1-58.14-39.49l-23.64-50.29c-3.69-7.85-10.87-12.73-18.74-12.73H295.12c-6.39,0-12.43,3.49-16.17,9.34
			L235.1,163.5c-15.03,23.52-39.33,37.55-65,37.55H72.8c-7.34,0-13.32,6.75-13.32,15.05v124.42c0,1.38,1,2.51,2.22,2.51h107.45
			c11.57,0,20.95,10.6,20.95,23.67C190.1,379.77,180.72,390.36,169.15,390.36"/>
		<path class="st21" d="M169.15,391.4H61.7c-24.89,0-45.14-22.82-45.14-50.88V216.1c0-34.97,25.23-63.42,56.24-63.42h97.3
			c11.9,0,23.18-6.53,30.17-17.46l43.85-68.61c11.78-18.43,30.85-29.44,51-29.44h163.86c23.81,0,45.53,14.74,56.68,38.46
			l23.64,50.28c4,8.5,11.74,13.78,20.22,13.78h0.13l106.42-0.62c15.31,0,29.68,6.76,40.46,19.02c10.82,12.32,16.68,28.65,16.5,46
			l-0.92,85.89c-0.15,13.46-10,24.4-21.97,24.4l-0.29,0c-12.1-0.17-21.84-11.38-21.69-25l0.92-85.89c0.05-4.04-1.31-7.83-3.82-10.68
			c-2.38-2.71-5.76-4.29-9.28-4.34l-106.46,0.62c-24.81,0-47.45-15.36-59.08-40.09l-23.64-50.29c-3.52-7.49-10.34-12.14-17.81-12.14
			H295.12c-6.03,0-11.75,3.31-15.3,8.86l-43.85,68.61c-15.22,23.81-39.84,38.03-65.87,38.03H72.8c-6.78,0-12.29,6.29-12.29,14.02
			v124.42c0,0.8,0.54,1.47,1.19,1.47h107.45c12.12,0,21.98,11.08,21.98,24.7C191.13,380.32,181.27,391.4,169.15,391.4 M72.8,154.75
			c-29.87,0-54.18,27.52-54.18,61.36v124.42c0,26.92,19.33,48.81,43.08,48.81h107.45c10.98,0,19.91-10.16,19.91-22.64
			c0-12.48-8.93-22.64-19.91-22.64H61.7c-1.79,0-3.25-1.59-3.25-3.54V216.1c0-8.87,6.44-16.08,14.35-16.08h97.3
			c25.32,0,49.29-13.86,64.13-37.08l43.85-68.61c3.93-6.15,10.3-9.82,17.04-9.82h163.86c8.28,0,15.82,5.11,19.68,13.33l23.64,50.29
			c11.28,24,33.21,38.9,57.21,38.9h0.34l106.12-0.62c4.12,0.05,8.06,1.89,10.82,5.04c2.84,3.24,4.38,7.52,4.33,12.07l-0.92,85.89
			c-0.13,12.48,8.69,22.76,19.67,22.91l0.24,0c10.85,0,19.78-10.03,19.91-22.36l0.92-85.89c0.18-16.84-5.5-32.68-15.98-44.61
			c-10.38-11.81-24.2-18.32-38.91-18.32h-0.29l-106.25,0.62c-9.28,0-17.75-5.73-22.09-14.96l-23.64-50.29
			c-10.81-22.99-31.81-37.27-54.81-37.27H295.12c-19.45,0-37.86,10.65-49.26,28.49l-43.85,68.61
			c-7.37,11.53-19.29,18.41-31.91,18.41H72.8z"/>
		<path class="st20" d="M663.21,722.05H90.6c-36.99,0-67.09-34.01-67.09-75.81V444.72c0-13.07,9.38-23.67,20.95-23.67
			c11.57,0,20.95,10.6,20.95,23.67v201.52c0,15.7,11.3,28.47,25.2,28.47h572.6c11.24,0,20.39-10.33,20.39-23.04v-250.6
			c0-12.06-8.68-21.87-19.35-21.87H571.3c-11.57,0-20.95-10.6-20.95-23.67c0-13.07,9.38-23.67,20.95-23.67h92.95
			c33.77,0,61.25,31.05,61.25,69.21v250.6C725.49,690.48,697.55,722.05,663.21,722.05"/>
		<path class="st21" d="M663.21,723.08H90.6c-37.56,0-68.12-34.47-68.12-76.84V444.72c0-13.62,9.86-24.7,21.98-24.7
			s21.98,11.08,21.98,24.7v201.52c0,15.13,10.84,27.44,24.17,27.44h572.61c10.67,0,19.36-9.87,19.36-22v-250.6
			c0-11.49-8.22-20.84-18.32-20.84H571.3c-12.12,0-21.98-11.08-21.98-24.7c0-13.62,9.86-24.7,21.98-24.7h92.95
			c34.34,0,62.28,31.51,62.28,70.24v250.6C726.52,691.05,698.12,723.08,663.21,723.08 M44.46,422.08
			c-10.98,0-19.91,10.16-19.91,22.64v201.52c0,41.23,29.63,74.78,66.06,74.78h572.61c33.77,0,61.25-31.11,61.25-69.34v-250.6
			c0-37.59-27.01-68.18-60.21-68.18H571.3c-10.98,0-19.91,10.15-19.91,22.64c0,12.48,8.93,22.64,19.91,22.64h92.95
			c11.24,0,20.39,10.27,20.39,22.9v250.6c0,13.27-9.61,24.07-21.42,24.07H90.6c-14.46,0-26.23-13.23-26.23-29.5V444.72
			C64.37,432.24,55.44,422.08,44.46,422.08"/>
		<path class="st22" d="M351.8,607.84L246.95,444.13c-18.07-28.21-27.47-61.66-25.77-95.52c2.84-56.44,26.57-131.45,129.5-145.68
			c14.54-2.01,29.33-1.78,43.8,0.79c36.38,6.47,98.86,29.29,115.6,109.51c9.68,46.41-0.31,94.93-25.61,134.45L381.89,607.84
			C374.73,619.02,358.95,619.02,351.8,607.84"/>
		<path class="st23" d="M366.84,631.92c-11.44,0-22.01-5.84-28.27-15.62L233.72,452.6c-20.03-31.27-30.05-68.49-28.23-104.78
			c4.59-91.35,55.39-148.33,143.03-160.44c16.32-2.26,32.7-1.96,48.7,0.88c39.88,7.09,109.56,32.33,128.22,121.76
			c10.28,49.27,0.16,102.52-27.77,146.12L395.11,616.31C388.85,626.09,378.28,631.92,366.84,631.92 M370.17,217.29
			c-5.77,0-11.55,0.4-17.34,1.2c-73.09,10.1-112.11,54.15-115.97,130.91c-1.5,29.82,6.78,60.45,23.31,86.26l106.67,166.55l104.4-163
			c23.53-36.73,32.08-81.48,23.46-122.77c-14.14-67.77-63.8-90.29-102.97-97.26C384.63,217.92,377.42,217.29,370.17,217.29"/>
		<path class="st20" d="M288.66,300.04c0,0,32.67-52.35,105.55-39.37c0,0,30.58,7.12,48.17,33.09c0,0,5.86,12.15-6.28,18.01
			c0,0-6.28,7.54-20.52-0.42c0,0-32.25-33.51-78.74-9.21c0,0-37.28,22.2-28.06,65.34c0,0,1.26,47.75,57.8,51.1
			c0,0,24.29,2.09,43.56-14.66c0,0,17.33-16.33,30.23-1.26c0,0,12.91,11.73-7.62,28.48c0,0-19.27,21.78-64.5,25.97
			c0,0-63.61,2.01-88.35-62.24C279.89,394.87,257.24,351.56,288.66,300.04"/>
	</g>
</g>
<g id="W_x2F_K" class="st0">
	<g class="st1">
		<defs>
			<rect id="SVGID_11_" width="750" height="758.19"/>
		</defs>
		<clipPath id="SVGID_12_">
			<use xlink:href="#SVGID_11_"  style="overflow:visible;"/>
		</clipPath>
		<path class="st24" d="M169.15,390.36H61.7c-24.32,0-44.11-22.36-44.11-49.85V216.1c0-34.4,24.77-62.39,55.21-62.39h97.3
			c12.26,0,23.86-6.7,31.04-17.93l43.85-68.61c11.59-18.14,30.33-28.96,50.13-28.96h163.86c23.4,0,44.76,14.51,55.74,37.86
			l23.64,50.28c4.17,8.87,12.27,14.37,21.15,14.37h0.13l106.12-0.62h0.29c15.01,0,29.1,6.62,39.69,18.67
			c10.66,12.13,16.42,28.22,16.24,45.31l-0.92,85.89c-0.14,12.98-9.49,23.38-20.94,23.38c-0.09,0-0.17,0-0.26,0
			c-11.57-0.16-20.83-10.88-20.69-23.95l0.92-85.89c0.05-4.29-1.4-8.33-4.08-11.38c-2.67-3.05-6.35-4.64-10.04-4.69l-106.12,0.62
			h-0.34c-24.42,0-46.67-15.1-58.14-39.49l-23.64-50.29c-3.69-7.85-10.87-12.73-18.74-12.73H295.12c-6.39,0-12.43,3.49-16.17,9.34
			L235.1,163.5c-15.03,23.52-39.33,37.55-65,37.55H72.8c-7.34,0-13.32,6.75-13.32,15.05v124.42c0,1.38,1,2.51,2.22,2.51h107.45
			c11.57,0,20.95,10.6,20.95,23.67C190.1,379.77,180.72,390.36,169.15,390.36"/>
		<path class="st25" d="M169.15,391.4H61.7c-24.89,0-45.14-22.82-45.14-50.88V216.1c0-34.97,25.23-63.42,56.24-63.42h97.3
			c11.9,0,23.18-6.53,30.17-17.46l43.85-68.61c11.78-18.43,30.85-29.44,51-29.44h163.86c23.81,0,45.53,14.74,56.68,38.46
			l23.64,50.28c4,8.5,11.74,13.78,20.22,13.78h0.13l106.42-0.62c15.31,0,29.68,6.76,40.46,19.02c10.82,12.32,16.68,28.65,16.5,46
			l-0.92,85.89c-0.15,13.46-10,24.4-21.97,24.4l-0.29,0c-12.1-0.17-21.84-11.38-21.69-25l0.92-85.89c0.05-4.04-1.31-7.83-3.82-10.68
			c-2.38-2.71-5.76-4.29-9.28-4.34l-106.46,0.62c-24.81,0-47.45-15.36-59.08-40.09l-23.64-50.29c-3.52-7.49-10.34-12.14-17.81-12.14
			H295.12c-6.03,0-11.75,3.31-15.3,8.86l-43.85,68.61c-15.22,23.81-39.84,38.03-65.87,38.03H72.8c-6.78,0-12.29,6.29-12.29,14.02
			v124.42c0,0.8,0.54,1.47,1.19,1.47h107.45c12.12,0,21.98,11.08,21.98,24.7C191.13,380.32,181.27,391.4,169.15,391.4 M72.8,154.75
			c-29.87,0-54.18,27.52-54.18,61.36v124.42c0,26.92,19.33,48.81,43.08,48.81h107.45c10.98,0,19.91-10.16,19.91-22.64
			c0-12.48-8.93-22.64-19.91-22.64H61.7c-1.79,0-3.25-1.59-3.25-3.54V216.1c0-8.87,6.44-16.08,14.35-16.08h97.3
			c25.32,0,49.29-13.86,64.13-37.08l43.85-68.61c3.93-6.15,10.3-9.82,17.04-9.82h163.86c8.28,0,15.82,5.11,19.68,13.33l23.64,50.29
			c11.28,24,33.21,38.9,57.21,38.9h0.34l106.12-0.62c4.12,0.05,8.06,1.89,10.82,5.04c2.84,3.24,4.38,7.52,4.33,12.07l-0.92,85.89
			c-0.13,12.48,8.69,22.76,19.67,22.91l0.24,0c10.85,0,19.78-10.03,19.91-22.36l0.92-85.89c0.18-16.84-5.5-32.68-15.98-44.61
			c-10.38-11.81-24.2-18.32-38.91-18.32h-0.29l-106.25,0.62c-9.28,0-17.75-5.73-22.09-14.96l-23.64-50.29
			c-10.81-22.99-31.81-37.27-54.81-37.27H295.12c-19.45,0-37.86,10.65-49.26,28.49l-43.85,68.61
			c-7.37,11.53-19.29,18.41-31.91,18.41H72.8z"/>
		<path class="st24" d="M663.21,722.05H90.6c-36.99,0-67.09-34.01-67.09-75.81V444.72c0-13.07,9.38-23.67,20.95-23.67
			c11.57,0,20.95,10.6,20.95,23.67v201.52c0,15.7,11.3,28.47,25.2,28.47h572.6c11.24,0,20.39-10.33,20.39-23.04v-250.6
			c0-12.06-8.68-21.87-19.35-21.87H571.3c-11.57,0-20.95-10.6-20.95-23.67c0-13.07,9.38-23.67,20.95-23.67h92.95
			c33.77,0,61.25,31.05,61.25,69.21v250.6C725.49,690.48,697.55,722.05,663.21,722.05"/>
		<path class="st25" d="M663.21,723.08H90.6c-37.56,0-68.12-34.47-68.12-76.84V444.72c0-13.62,9.86-24.7,21.98-24.7
			s21.98,11.08,21.98,24.7v201.52c0,15.13,10.84,27.44,24.17,27.44h572.61c10.67,0,19.36-9.87,19.36-22v-250.6
			c0-11.49-8.22-20.84-18.32-20.84H571.3c-12.12,0-21.98-11.08-21.98-24.7c0-13.62,9.86-24.7,21.98-24.7h92.95
			c34.34,0,62.28,31.51,62.28,70.24v250.6C726.52,691.05,698.12,723.08,663.21,723.08 M44.46,422.08
			c-10.98,0-19.91,10.16-19.91,22.64v201.52c0,41.23,29.63,74.78,66.06,74.78h572.61c33.77,0,61.25-31.11,61.25-69.34v-250.6
			c0-37.59-27.01-68.18-60.21-68.18H571.3c-10.98,0-19.91,10.15-19.91,22.64c0,12.48,8.93,22.64,19.91,22.64h92.95
			c11.24,0,20.39,10.27,20.39,22.9v250.6c0,13.27-9.61,24.07-21.42,24.07H90.6c-14.46,0-26.23-13.23-26.23-29.5V444.72
			C64.37,432.24,55.44,422.08,44.46,422.08"/>
		<path class="st26" d="M351.8,607.84L246.95,444.13c-18.07-28.21-27.47-61.66-25.77-95.52c2.84-56.44,26.57-131.45,129.5-145.68
			c14.54-2.01,29.33-1.78,43.8,0.79c36.38,6.47,98.86,29.29,115.6,109.51c9.68,46.41-0.31,94.93-25.61,134.45L381.89,607.84
			C374.73,619.02,358.95,619.02,351.8,607.84"/>
		<path class="st24" d="M366.84,631.92c-11.44,0-22.01-5.84-28.27-15.62L233.72,452.6c-20.03-31.27-30.05-68.49-28.23-104.78
			c4.59-91.35,55.39-148.33,143.03-160.44c16.32-2.26,32.7-1.96,48.7,0.88c39.88,7.09,109.56,32.33,128.22,121.76
			c10.28,49.27,0.16,102.52-27.77,146.12L395.11,616.31C388.85,626.09,378.28,631.92,366.84,631.92 M370.17,217.29
			c-5.77,0-11.55,0.4-17.34,1.2c-73.09,10.1-112.11,54.15-115.97,130.91c-1.5,29.82,6.78,60.45,23.31,86.26l106.67,166.55l104.4-163
			c23.53-36.73,32.08-81.48,23.46-122.77c-14.14-67.77-63.8-90.29-102.97-97.26C384.63,217.92,377.42,217.29,370.17,217.29"/>
		<path class="st24" d="M288.66,300.04c0,0,32.67-52.35,105.55-39.37c0,0,30.58,7.12,48.17,33.09c0,0,5.86,12.15-6.28,18.01
			c0,0-6.28,7.54-20.52-0.42c0,0-32.25-33.51-78.74-9.21c0,0-37.28,22.2-28.06,65.34c0,0,1.26,47.75,57.8,51.1
			c0,0,24.29,2.09,43.56-14.66c0,0,17.33-16.33,30.23-1.26c0,0,12.91,11.73-7.62,28.48c0,0-19.27,21.78-64.5,25.97
			c0,0-63.61,2.01-88.35-62.24C279.89,394.87,257.24,351.56,288.66,300.04"/>
	</g>
</g>
</svg>
