<?xml version="1.0" encoding="utf-8"?>
<!-- Generator: Adobe Illustrator 25.3.0, SVG Export Plug-In . SVG Version: 6.00 Build 0)  -->
<svg version="1.1" id="Capa_1" xmlns="http://www.w3.org/2000/svg" xmlns:xlink="http://www.w3.org/1999/xlink" x="0px" y="0px"
	 viewBox="0 0 344.02 449.32" style="enable-background:new 0 0 344.02 449.32;" xml:space="preserve">
<style type="text/css">
	.st0{fill:#FFFFFF;}
</style>
<g>
	<path class="st0" d="M9.33,153.89c-0.08,3.82,0.93,5.4,4.94,5.37c25.54-0.2,49.49-0.17,75.03-0.23c1.99-0.01,5.68,0.67,5.66-2.06
		c-0.02-3.85,0.2-10.63,0.22-14.4c0.01-1.58,0.02-3.16,0.03-4.75H9.46C9.47,143.18,9.44,148.53,9.33,153.89z"/>
	<path class="st0" d="M246.92,137.82c0.01,4.92,0.04,9.85,0.2,14.77c0.19,5.85,2.78,6.14,4.24,6.14c25.74,0,51.49-0.16,77.23-0.05
		c4.04,0.02,5.05-1.58,4.97-5.39c-0.11-5.15-0.16-10.31-0.16-15.46H246.92z"/>
</g>
<g>
	<path class="st0" d="M247.07,95.48c-0.65-3.97-2.26-7.91-5.27-10.83c-3.8-3.69-9.27-5.76-14.67-6.19
		c-3.27-0.26-10.23-0.81-11.01,3.08h0.03c0.01,2.67,0.03,5.34,0.03,8c0.01,6.76-5.47,12.25-12.23,12.25h-62.39
		c-6.75,0-12.23-5.48-12.23-12.23c0-0.77,0-1.54,0-2.31h0c0-1.2,0-2.4,0-3.6c0-9.06-18.07-4.18-22.59-1.6
		c-6.72,3.84-8.9,10.62-9.78,17.4c-0.21,1.61-0.36,3.23-0.49,4.84h151.14C247.62,101.33,247.54,98.36,247.07,95.48z"/>
	<path class="st0" d="M334.17,104.3c-0.05-15.6-2.15-30.98-9.21-45.94c-13.88-29.4-44.26-41.08-74.62-45.31
		C214.47,8.04,176.7,7.9,140.6,8.93c-12.98,0.37-25.96,1.15-38.87,2.52c-32.1,3.41-68.1,16.03-82.66,47.32
		c-6.9,14.84-8.97,30.08-9.01,45.53h0.04c0,1.03,0,2.05,0.01,3.08c0.04,8.91,0.07,17.82,0.09,26.73h85.82
		c0.03-9.94,0.09-19.88,0.18-29.81h0.28c0.13-1.62,0.28-3.23,0.49-4.84c0.88-6.78,3.06-13.57,9.78-17.4
		c4.52-2.58,22.59-7.46,22.59,1.6c0,1.2,0,2.4,0,3.6h0c0,0.77,0,1.54,0,2.31c0,6.75,5.47,12.23,12.23,12.23h62.39
		c6.76,0,12.24-5.49,12.23-12.25c0-2.67-0.02-5.34-0.03-8h-0.03c0.78-3.89,7.74-3.34,11.01-3.08c5.41,0.43,10.88,2.5,14.67,6.19
		c3.01,2.93,4.62,6.87,5.27,10.83c0.45,2.75,0.55,5.58,0.54,8.41h-0.05c-0.01,4.18-0.02,8.34-0.01,12.47c0,5.91,0,11.83,0,17.75
		h86.5c0.01-9.68,0.04-19.36,0.08-29.04c0-0.26,0-0.51,0-0.77H334.17z"/>
</g>
<g>
	<path class="st0" d="M157.08,377.38c-12.48-0.02-24.99,0.39-37.44-0.11c-15.83-0.63-25.75-3.93-25.88-19.4
		c-0.18-20.92,0-41.84-0.13-62.76c-0.02-2.92,1.13-3.97,5.09-3.94c19.4,0.12,38.8,0.01,58.21,0.1c3.21,0.01,4.56-0.53,4.54-3.24
		c-0.05-6.52-0.06-13.05-0.08-19.57h0.01c0.02-5.5,0.02-10.99,0.06-16.49c0.02-2.65-1.21-3.29-4.48-3.28
		c-18.45,0.1-36.91,0.05-55.36,0.05c-5.7,0-5.72-0.01-5.72-4.22c0-3.48-0.01-6.96-0.01-10.44c-0.01-21.47-0.03-42.95,0.07-64.42
		c0.02-5.49-1.07-7.35-4.9-7.32c-25.24,0.25-50.47,0.14-75.71,0.14c-5.74,0-5.76-0.01-5.76,8.83c0,20.93,0,41.85,0,62.77
		c0,11.33,0,22.67,0,34h0c0,2.38,0,4.76,0,7.14c0,26.9,0.14,53.8-0.06,80.7c-0.1,13.31,2.27,26.26,8.53,38.7
		c4.9,9.73,12.04,18.37,22.84,25.08c18.31,11.37,39.96,16.37,62.86,17.89c17.79,1.18,35.77,0.71,53.66,0.93
		c4.99,0.06,5.2-0.17,5.2-4.06c0.01-17.62,0.01-35.25,0-52.87C162.62,377.65,162.31,377.39,157.08,377.38z"/>
	<path class="st0" d="M334.66,275.22c0-2.38,0-4.76,0-7.14h0c0-21.9,0-43.81,0-65.71c0-1.66,0-2.7-0.31-3.36
		c0.01-9.97,0.03-19.95,0.07-29.92c0.02-5.49-1.08-7.35-4.93-7.32c-25.4,0.25-50.81,0.14-76.22,0.14c-5.78,0-5.8-0.01-5.8,8.83
		c0,9.82,0,19.65,0,29.47c-0.08,0.39-0.11,0.82-0.11,1.32c0.12,14.33,0.06,28.65,0.06,42.98c0,4.21-0.02,4.22-5.78,4.22
		c-18.65,0-37.3,0.05-55.95-0.05c-3.31-0.02-4.55,0.62-4.53,3.28c0.04,5.5,0.05,10.99,0.06,16.49h0.01
		c-0.01,6.52-0.03,13.05-0.08,19.57c-0.02,2.71,1.35,3.25,4.59,3.24c19.61-0.09,39.22,0.02,58.83-0.1c4-0.02,5.16,1.03,5.15,3.94
		c-0.13,20.92,0.05,41.84-0.14,62.76c-0.1,11.19-5.37,16.01-14.33,18.06c5.93,10.06,20.34,7.31,20.34,7.31l5.29,16.8
		c-27.91,3.13-43.16-13.34-49.4-22.53c-8.63,0.04-17.27-0.14-25.9-0.13c-5.28,0.01-5.6,0.27-5.6,4.21
		c-0.01,17.62-0.01,35.25,0,52.87c0,3.89,0.21,4.12,5.26,4.06c18.09-0.22,36.26,0.25,54.24-0.93c23.15-1.52,45.03-6.51,63.54-17.89
		c10.92-6.71,18.13-15.35,23.09-25.08c6.33-12.43,8.72-25.38,8.62-38.7C334.51,329.02,334.66,302.12,334.66,275.22z"/>
</g>
</svg>
