<?xml version="1.0" encoding="utf-8"?>
<!-- Generator: Adobe Illustrator 25.3.0, SVG Export Plug-In . SVG Version: 6.00 Build 0)  -->
<svg version="1.1" id="Capa_1" xmlns="http://www.w3.org/2000/svg" xmlns:xlink="http://www.w3.org/1999/xlink" x="0px" y="0px"
	 viewBox="0 0 417.65 538.33" style="enable-background:new 0 0 417.65 538.33;" xml:space="preserve">
<style type="text/css">
	.st0{fill:#00A8E1;}
	.st1{fill:none;}
	.st2{fill:#009C39;}
	.st3{fill:#D11216;}
</style>
<g>
	<path class="st0" d="M15.92,184.13c-0.09,4.58,1.12,6.48,5.93,6.44c30.64-0.24,59.36-0.2,90-0.28c2.39-0.01,6.81,0.8,6.79-2.47
		c-0.03-4.62,0.24-12.75,0.26-17.27c0.01-1.9,0.02-3.8,0.03-5.69H16.08C16.09,171.28,16.05,177.7,15.92,184.13z"/>
	<path class="st0" d="M300.93,164.85c0.01,5.91,0.04,11.81,0.24,17.71c0.23,7.02,3.34,7.37,5.08,7.37
		c30.88-0.01,61.76-0.19,92.64-0.07c4.85,0.02,6.06-1.89,5.96-6.47c-0.14-6.18-0.19-12.36-0.19-18.55H300.93z"/>
</g>
<g>
	<path class="st1" d="M301.1,114.07c-0.78-4.76-2.71-9.48-6.32-13c-4.55-4.43-11.12-6.91-17.6-7.42
		c-3.93-0.31-12.27-0.97-13.21,3.69h0.04c0.02,3.2,0.03,6.4,0.04,9.6c0.01,8.11-6.56,14.7-14.67,14.7h-74.84
		c-8.1,0-14.67-6.57-14.67-14.67c0-0.92,0-1.84,0-2.77h0c0-1.44,0-2.88,0-4.32c0-10.87-21.67-5.01-27.09-1.92
		c-8.06,4.6-10.68,12.74-11.73,20.87c-0.25,1.93-0.43,3.87-0.58,5.81h181.3C301.77,121.09,301.67,117.52,301.1,114.07z"/>
	<path class="st0" d="M405.58,124.64c-0.06-18.71-2.57-37.16-11.04-55.1c-16.65-35.26-53.1-49.27-89.51-54.36
		c-43.03-6-88.34-6.17-131.63-4.94c-15.57,0.44-31.14,1.38-46.63,3.02c-38.5,4.09-81.69,19.23-99.15,56.76
		c-8.28,17.8-10.76,36.09-10.81,54.62h0.05c0,1.23,0.01,2.46,0.01,3.69c0.05,10.68,0.08,21.37,0.11,32.06h102.94
		c0.04-11.92,0.11-23.84,0.21-35.75h0.33c0.15-1.94,0.33-3.88,0.58-5.81c1.05-8.13,3.67-16.27,11.73-20.87
		c5.42-3.09,27.1-8.95,27.09,1.92c0,1.44,0,2.88,0,4.32h0c0,0.92,0,1.84,0,2.77c0,8.1,6.56,14.67,14.67,14.67h74.84
		c8.11,0,14.69-6.58,14.67-14.7c-0.01-3.2-0.02-6.4-0.04-9.6h-0.04c0.93-4.66,9.28-4,13.21-3.69c6.48,0.52,13.05,2.99,17.6,7.42
		c3.61,3.51,5.54,8.24,6.32,13c0.54,3.29,0.65,6.69,0.65,10.09h-0.05c-0.01,5.01-0.02,10.01-0.01,14.96
		c0.01,7.09,0.01,14.19,0.01,21.29h103.76c0.02-11.61,0.05-23.22,0.09-34.83c0-0.31,0-0.61,0-0.92H405.58z"/>
</g>
<g>
	<path class="st2" d="M193.16,452.21c-14.97-0.02-29.98,0.47-44.91-0.13c-18.99-0.76-30.88-4.71-31.04-23.28
		c-0.22-25.1,0-50.19-0.16-75.29c-0.02-3.5,1.36-4.76,6.11-4.73c23.27,0.15,46.55,0.01,69.82,0.12c3.85,0.02,5.47-0.63,5.45-3.88
		c-0.06-7.83-0.08-15.65-0.09-23.48h0.01c0.02-6.59,0.02-13.18,0.07-19.78c0.02-3.18-1.45-3.95-5.38-3.93
		c-22.13,0.11-44.27,0.06-66.4,0.06c-6.84,0-6.86-0.01-6.86-5.06c0-4.17-0.01-8.35-0.01-12.52c-0.02-25.76-0.03-51.52,0.08-77.28
		c0.03-6.59-1.29-8.82-5.87-8.77c-30.27,0.3-60.54,0.17-90.82,0.17c-6.88,0-6.91-0.02-6.91,10.59c0,25.1,0,50.2,0,75.3
		c0,13.6,0,27.19,0,40.79h0c0,2.86,0,5.71,0,8.57c0,32.27,0.17,64.53-0.07,96.8c-0.12,15.97,2.72,31.5,10.23,46.42
		c5.88,11.67,14.44,22.03,27.4,30.09c21.96,13.64,47.93,19.64,75.4,21.46c21.34,1.41,42.9,0.86,64.37,1.12
		c5.99,0.07,6.24-0.2,6.24-4.87c0.01-21.14,0.01-42.28,0-63.42C199.81,452.53,199.42,452.22,193.16,452.21z"/>
	<path class="st3" d="M406.17,329.67c0-2.86,0-5.71,0-8.57h0c0-26.27,0-52.55,0-78.82c0-1.99,0-3.24-0.37-4.03
		c0.01-11.96,0.03-23.93,0.08-35.89c0.03-6.59-1.3-8.82-5.91-8.77c-30.47,0.3-60.95,0.17-91.43,0.17c-6.93,0-6.95-0.02-6.95,10.59
		c0,11.78,0,23.57,0,35.35c-0.09,0.46-0.14,0.99-0.13,1.59c0.15,17.18,0.08,34.37,0.07,51.55c0,5.05-0.02,5.06-6.93,5.06
		c-22.37,0-44.74,0.06-67.12-0.06c-3.97-0.02-5.46,0.75-5.43,3.93c0.05,6.59,0.05,13.18,0.07,19.78h0.01
		c-0.02,7.83-0.03,15.65-0.09,23.48c-0.03,3.25,1.62,3.9,5.51,3.88c23.52-0.1,47.05,0.03,70.57-0.12c4.8-0.03,6.19,1.23,6.17,4.73
		c-0.16,25.1,0.05,50.19-0.16,75.29c-0.12,13.43-6.44,19.21-17.19,21.67c7.11,12.06,24.4,8.77,24.4,8.77l6.35,20.15
		c-33.47,3.75-51.78-16-59.26-27.03c-10.35,0.05-20.72-0.17-31.07-0.15c-6.33,0.01-6.72,0.33-6.72,5.05
		c-0.01,21.14-0.01,42.28,0,63.42c0,4.67,0.25,4.94,6.3,4.87c21.7-0.26,43.49,0.3,65.06-1.12c27.77-1.82,54.02-7.81,76.21-21.46
		c13.1-8.05,21.75-18.41,27.69-30.09c7.59-14.91,10.47-30.45,10.34-46.42C405.99,394.21,406.17,361.94,406.17,329.67z"/>
</g>
</svg>
